<svg width="71" height="70" viewBox="0 0 71 70" fill="none" xmlns="http://www.w3.org/2000/svg">
<path d="M57.0752 4.25294C50.3203 4.25294 41.0829 11.6731 38.2684 14.6156C37.8713 13.7201 36.3862 11.9293 33.6229 11.9293C30.1687 11.9293 29.0972 11.5453 27.9059 13.4644C27.1383 5.02082 2.19196 -9.56381 1.04056 13.0803C0.119447 31.1956 15.1131 29.2002 22.917 26.5136C22.917 32.6544 9.22827 51.2043 2.19196 59.1362C4.64827 57.908 9.86794 56.8334 12.1707 56.4496C14.013 59.827 13.9618 63.9976 13.7059 65.6607C20.4608 62.2833 28.2903 43.2725 31.3607 34.1892C32.8959 41.8652 45.0495 59.6479 50.9344 67.5797C50.9344 65.1234 51.702 60.9272 52.0858 59.1362C59.7618 62.5136 63.4718 60.5434 64.3674 59.1362C51.7788 49.0039 43.1304 33.8058 39.4203 26.5136C42.8745 31.1192 55.54 32.2703 57.0752 32.2703C58.6104 32.2703 69.7405 32.2703 69.7405 19.9887C69.7405 7.70713 65.5188 4.25294 57.0752 4.25294Z" fill="#D93037" stroke="#D93037"/>
<mask id="path-2-inside-1_166_31725" fill="white">
<path d="M33.6227 23.7106C32.983 26.3079 33.0086 32.6539 38.2282 37.2595C37.3327 33.3714 35.6952 24.9962 36.3093 22.6C35.5174 23.1442 34.6063 23.5298 33.6227 23.7106Z"/>
<path d="M27.8657 22.2105C27.6098 25.6916 26.2537 32.9609 22.8763 34.1891C25.5629 34.4718 30.7825 32.7263 30.1685 23.483C29.3166 23.2055 28.5371 22.7697 27.8657 22.2105Z"/>
<path d="M25.3766 16.9181C25.3766 16.5022 25.4137 16.0948 25.4847 15.699C21.6231 12.8544 13.1621 7.97789 10.2109 11.2289C13.5621 11.6994 21.3085 13.7397 25.4847 18.1373C25.4137 17.7415 25.3766 17.3341 25.3766 16.9181Z"/>
<path d="M39.2649 16.1054C39.2964 16.372 39.3126 16.6432 39.3126 16.9181C39.3126 17.6253 39.2054 18.3076 39.0063 18.95C40.7287 16.3616 48.6723 14.0787 52.4288 13.2608C48.8218 11.3102 42.1499 14.3444 39.2649 16.1054Z"/>
<path d="M39.2649 16.1054C38.8591 12.673 35.9156 10.0098 32.3446 10.0098C28.9158 10.0098 26.0655 12.4651 25.4847 15.699C25.4137 16.0948 25.3766 16.5022 25.3766 16.9181C25.3766 17.3341 25.4137 17.7415 25.4847 18.1373C25.7766 19.7627 26.6419 21.1914 27.8657 22.2105C28.5371 22.7697 29.3166 23.2055 30.1685 23.483C30.8532 23.7059 31.5847 23.8265 32.3446 23.8265C32.7811 23.8265 33.2083 23.7867 33.6227 23.7106C34.6063 23.5298 35.5174 23.1442 36.3093 22.6C37.5791 21.7274 38.5423 20.447 39.0063 18.95C39.2054 18.3076 39.3126 17.6253 39.3126 16.9181C39.3126 16.6432 39.2964 16.372 39.2649 16.1054Z"/>
</mask>
<path d="M33.6227 23.7106C32.983 26.3079 33.0086 32.6539 38.2282 37.2595C37.3327 33.3714 35.6952 24.9962 36.3093 22.6C35.5174 23.1442 34.6063 23.5298 33.6227 23.7106Z" fill="#D9D9D9"/>
<path d="M27.8657 22.2105C27.6098 25.6916 26.2537 32.9609 22.8763 34.1891C25.5629 34.4718 30.7825 32.7263 30.1685 23.483C29.3166 23.2055 28.5371 22.7697 27.8657 22.2105Z" fill="#D9D9D9"/>
<path d="M25.3766 16.9181C25.3766 16.5022 25.4137 16.0948 25.4847 15.699C21.6231 12.8544 13.1621 7.97789 10.2109 11.2289C13.5621 11.6994 21.3085 13.7397 25.4847 18.1373C25.4137 17.7415 25.3766 17.3341 25.3766 16.9181Z" fill="#D9D9D9"/>
<path d="M38.2718 16.2228C38.2987 16.4505 38.3126 16.6825 38.3126 16.9181H40.3126C40.3126 16.6039 40.294 16.2934 40.2579 15.988L38.2718 16.2228ZM38.3126 16.9181C38.3126 17.5237 38.2209 18.1063 38.0511 18.654L39.9615 19.2461C40.1899 18.5089 40.3126 17.7268 40.3126 16.9181H38.3126ZM26.3766 16.9181C26.3766 16.5617 26.4083 16.2135 26.469 15.8758L24.5005 15.5223C24.419 15.9761 24.3766 16.4426 24.3766 16.9181H26.3766ZM26.469 17.9605C26.4083 17.6228 26.3766 17.2746 26.3766 16.9181H24.3766C24.3766 17.3937 24.419 17.8602 24.5005 18.314L26.469 17.9605ZM35.7429 21.7758C35.0644 22.2421 34.2843 22.5722 33.4419 22.727L33.8034 24.6941C34.9283 24.4873 35.9703 24.0463 36.8756 23.4242L35.7429 21.7758ZM30.4781 22.5321C29.7488 22.2946 29.0811 21.9213 28.5056 21.4421L27.2258 22.979C27.9932 23.618 28.8843 24.1165 29.8588 24.4338L30.4781 22.5321ZM39.2649 16.1054L37.2787 16.3402L37.6448 19.4373L40.3068 17.8125L39.2649 16.1054ZM52.4288 13.2608L52.8543 15.215L58.1249 14.0674L53.3802 11.5015L52.4288 13.2608ZM39.0063 18.95L37.3413 17.842L37.1814 18.0823L37.096 18.358L39.0063 18.95ZM25.4847 15.699L24.2985 17.3093L26.8853 19.2148L27.4532 16.0525L25.4847 15.699ZM10.2109 11.2289L8.73008 9.88462L6.18903 12.6839L9.93288 13.2095L10.2109 11.2289ZM25.4847 18.1373L27.4532 17.7837L27.3474 17.1943L26.935 16.76L25.4847 18.1373ZM33.6227 23.7106L35.5646 24.1888L36.3046 21.1841L33.2611 21.7435L33.6227 23.7106ZM38.2282 37.2595L36.905 38.7592L41.5751 42.8799L40.1772 36.8106L38.2282 37.2595ZM36.3093 22.6L35.1765 20.9517L34.5581 21.3766L34.3719 22.1035L36.3093 22.6ZM27.8657 22.2105L29.8603 22.3571L29.9357 21.3316L29.1455 20.6736L27.8657 22.2105ZM22.8763 34.1891L22.1928 32.3095L22.667 36.1781L22.8763 34.1891ZM30.1685 23.483L30.7877 21.5812L27.9769 20.6659L28.1729 23.6155L30.1685 23.483ZM32.3446 12.0098C34.9034 12.0098 36.9921 13.9161 37.2787 16.3402L41.251 15.8706C40.7261 11.4299 36.9277 8.00977 32.3446 8.00977V12.0098ZM40.3068 17.8125C41.6354 17.0016 43.8657 15.8842 46.1444 15.2088C48.5525 14.4951 50.4266 14.4517 51.4774 15.02L53.3802 11.5015C50.824 10.1192 47.5587 10.6177 45.0078 11.3737C42.3276 12.168 39.7794 13.4482 38.2229 14.3983L40.3068 17.8125ZM52.0033 11.3066C50.0565 11.7304 47.0363 12.5301 44.2556 13.5676C42.8668 14.0858 41.4889 14.6813 40.3181 15.3428C39.2022 15.9733 38.0408 16.7908 37.3413 17.842L40.6714 20.058C40.833 19.815 41.3105 19.3765 42.2858 18.8254C43.2063 18.3053 44.372 17.7936 45.6539 17.3153C48.2148 16.3597 51.0446 15.609 52.8543 15.215L52.0033 11.3066ZM27.4532 16.0525C27.8637 13.7668 29.8888 12.0098 32.3446 12.0098V8.00977C27.9428 8.00977 24.2673 11.1633 23.5162 15.3455L27.4532 16.0525ZM26.6709 14.0888C24.6548 12.6036 21.42 10.5698 18.2392 9.31719C16.6566 8.69397 14.9607 8.21278 13.3695 8.15703C11.7688 8.10095 10.0081 8.47677 8.73008 9.88462L11.6918 12.5732C11.8894 12.3555 12.293 12.1218 13.2294 12.1546C14.1753 12.1877 15.3893 12.4939 16.7736 13.039C19.5265 14.1231 22.453 15.9498 24.2985 17.3093L26.6709 14.0888ZM9.93288 13.2095C11.4619 13.4241 14.086 14.0141 16.8138 15.0745C19.564 16.1436 22.2357 17.6204 24.0345 19.5145L26.935 16.76C24.5575 14.2566 21.2679 12.5144 18.2631 11.3463C15.2359 10.1695 12.3111 9.50413 10.489 9.24831L9.93288 13.2095ZM33.2611 21.7435C32.9655 21.7978 32.6593 21.8265 32.3446 21.8265V25.8265C32.903 25.8265 33.4511 25.7756 33.9842 25.6776L33.2611 21.7435ZM31.6807 23.2323C30.9218 26.3136 30.9637 33.5168 36.905 38.7592L39.5515 35.7598C35.0535 31.7909 35.0442 26.3021 35.5646 24.1888L31.6807 23.2323ZM37.096 18.358C36.7684 19.4148 36.0852 20.3273 35.1765 20.9517L37.442 24.2483C39.0731 23.1275 40.3163 21.4793 40.9167 19.5421L37.096 18.358ZM40.1772 36.8106C39.7373 34.9008 39.1145 31.8844 38.6792 29.0651C38.4613 27.6536 38.2952 26.322 38.2194 25.2178C38.1384 24.0377 38.1808 23.3533 38.2466 23.0965L34.3719 22.1035C34.1306 23.0448 34.1474 24.3059 34.2288 25.4916C34.3153 26.7531 34.4994 28.2076 34.7261 29.6755C35.1799 32.6148 35.8236 35.7301 36.2793 37.7084L40.1772 36.8106ZM29.1455 20.6736C28.2702 19.9447 27.659 18.9294 27.4532 17.7837L23.5162 18.4908C23.8943 20.596 25.0136 22.4381 26.5858 23.7474L29.1455 20.6736ZM25.8711 22.0639C25.7517 23.6884 25.3712 26.2071 24.6421 28.4185C24.2775 29.5245 23.8514 30.4737 23.381 31.179C22.9007 31.8989 22.4831 32.2039 22.1928 32.3095L23.5598 36.0687C24.9582 35.5602 25.9766 34.496 26.7086 33.3987C27.4503 32.2868 28.0125 30.9708 28.441 29.6709C29.2984 27.0703 29.7238 24.2137 29.8603 22.3571L25.8711 22.0639ZM32.3446 21.8265C31.7974 21.8265 31.2748 21.7398 30.7877 21.5812L29.5492 25.3847C30.4315 25.672 31.3719 25.8265 32.3446 25.8265V21.8265ZM22.667 36.1781C24.4996 36.3709 27.1082 35.8787 29.1709 33.8259C31.2696 31.7374 32.496 28.3465 32.1641 23.3504L28.1729 23.6155C28.455 27.8628 27.3787 29.9663 26.3493 30.9907C25.2841 32.0508 23.9396 32.2899 23.0856 32.2001L22.667 36.1781Z" fill="#9E2B28" mask="url(#path-2-inside-1_166_31725)"/>
</svg>
