<svg width="367" height="365" viewBox="0 0 367 365" fill="none" xmlns="http://www.w3.org/2000/svg">
<path d="M198.5 1C176.833 28.5 100 79 42 91C65.8333 114.667 148.4 160 244 160C226.5 190.667 161.7 259.5 10.5 251.5C55.3333 290.833 189.1 365.5 365.5 349.5" stroke="#242424" stroke-width="3"/>
<path d="M185.442 19.9046C185.363 18.52 186.045 17.0665 186.524 16.5286C187.532 15.3973 189.271 14.3324 190.982 14.2348C191.874 14.1839 192.729 14.318 193.504 14.6008C195.534 15.342 197.009 17.1046 197.131 19.2378C197.299 22.185 194.819 24.7235 191.591 24.9076C188.363 25.0917 185.61 22.8518 185.442 19.9046Z" fill="#FBB812"/>
<path d="M190.982 14.2348C191.874 14.1839 192.729 14.318 193.504 14.6008C192.755 13.1139 191.031 11.3352 188.565 12.0782C186.197 12.7916 186.029 15.2945 186.524 16.5286C187.532 15.3973 189.271 14.3324 190.982 14.2348Z" fill="#242424"/>
<path d="M161.442 38.9046C161.363 37.52 162.045 36.0665 162.524 35.5286C163.532 34.3973 165.271 33.3324 166.982 33.2348C167.874 33.1839 168.729 33.318 169.504 33.6008C171.534 34.342 173.009 36.1046 173.131 38.2378C173.299 41.185 170.819 43.7235 167.591 43.9076C164.363 44.0917 161.61 41.8518 161.442 38.9046Z" fill="#FBB812"/>
<path d="M166.982 33.2348C167.874 33.1839 168.729 33.318 169.504 33.6008C168.755 32.1139 167.031 30.3352 164.565 31.0782C162.197 31.7916 162.029 34.2945 162.524 35.5286C163.532 34.3973 165.271 33.3324 166.982 33.2348Z" fill="#242424"/>
<path d="M106.442 71.9046C106.363 70.52 107.045 69.0665 107.524 68.5286C108.532 67.3973 110.271 66.3324 111.982 66.2348C112.874 66.1839 113.729 66.318 114.504 66.6008C116.534 67.342 118.009 69.1046 118.131 71.2378C118.299 74.185 115.819 76.7235 112.591 76.9076C109.363 77.0917 106.61 74.8518 106.442 71.9046Z" fill="#FBB812"/>
<path d="M111.982 66.2348C112.874 66.1839 113.729 66.318 114.504 66.6008C113.755 65.1139 112.031 63.3352 109.565 64.0782C107.197 64.7916 107.029 67.2945 107.524 68.5286C108.532 67.3973 110.271 66.3324 111.982 66.2348Z" fill="#242424"/>
<path d="M66.4419 89.9046C66.3629 88.52 67.0448 87.0665 67.5241 86.5286C68.5319 85.3973 70.2707 84.3324 71.9822 84.2348C72.8737 84.1839 73.7291 84.318 74.5037 84.6008C76.5336 85.342 78.0095 87.1046 78.1312 89.2378C78.2993 92.185 75.8188 94.7235 72.5909 94.9076C69.363 95.0917 66.61 92.8518 66.4419 89.9046Z" fill="#FBB812"/>
<path d="M71.9822 84.2348C72.8737 84.1839 73.7291 84.318 74.5037 84.6008C73.7553 83.1139 72.0308 81.3352 69.5647 82.0782C67.1966 82.7916 67.0288 85.2945 67.5241 86.5286C68.5319 85.3973 70.2707 84.3324 71.9822 84.2348Z" fill="#242424"/>
<path d="M42.7079 99.1681C43.9296 98.5117 45.535 98.5159 46.225 98.723C47.6761 99.1587 49.3758 100.285 50.1871 101.795C50.6098 102.582 50.8496 103.414 50.9204 104.235C51.106 106.388 50.1316 108.471 48.2495 109.482C45.6491 110.879 42.3005 109.703 40.7702 106.855C39.2399 104.007 40.1075 100.565 42.7079 99.1681Z" fill="#FBB812"/>
<path d="M50.1871 101.795C50.6098 102.582 50.8496 103.414 50.9204 104.235C51.9521 102.929 52.8359 100.615 51.1208 98.693C49.4739 96.8478 47.1344 97.7528 46.225 98.723C47.6761 99.1587 49.3758 100.285 50.1871 101.795Z" fill="#242424"/>
<path d="M69.196 119.078C70.0541 117.988 71.5279 117.351 72.2432 117.266C73.7476 117.086 75.7556 117.441 77.1022 118.501C77.8037 119.054 78.3556 119.721 78.7484 120.446C79.7779 122.346 79.7156 124.644 78.3934 126.323C76.5668 128.642 73.027 128.9 70.4872 126.899C67.9474 124.898 67.3693 121.397 69.196 119.078Z" fill="#FBB812"/>
<path d="M77.1022 118.501C77.8037 119.054 78.3556 119.721 78.7484 120.446C79.173 118.836 79.0597 116.362 76.7202 115.284C74.4737 114.25 72.6898 116.013 72.2432 117.266C73.7476 117.086 75.7556 117.441 77.1022 118.501Z" fill="#242424"/>
<path d="M98.3073 133.589C99.1655 132.5 100.639 131.863 101.355 131.778C102.859 131.598 104.867 131.952 106.214 133.013C106.915 133.566 107.467 134.233 107.86 134.958C108.889 136.858 108.827 139.156 107.505 140.834C105.678 143.153 102.138 143.411 99.5985 141.411C97.0587 139.41 96.4806 135.908 98.3073 133.589Z" fill="#FBB812"/>
<path d="M106.214 133.013C106.915 133.566 107.467 134.233 107.86 134.958C108.284 133.348 108.171 130.873 105.832 129.796C103.585 128.761 101.801 130.525 101.355 131.778C102.859 131.598 104.867 131.952 106.214 133.013Z" fill="#242424"/>
<path d="M135.206 150.052C135.518 148.701 136.581 147.497 137.192 147.115C138.477 146.312 140.445 145.778 142.115 146.165C142.985 146.367 143.768 146.735 144.432 147.224C146.172 148.505 147.094 150.612 146.612 152.693C145.946 155.569 142.853 157.309 139.703 156.58C136.553 155.85 134.54 152.928 135.206 150.052Z" fill="#FBB812"/>
<path d="M142.115 146.165C142.985 146.367 143.768 146.735 144.432 147.224C144.131 145.587 142.975 143.396 140.4 143.417C137.927 143.437 137.063 145.792 137.192 147.115C138.477 146.312 140.445 145.778 142.115 146.165Z" fill="#242424"/>
<path d="M171.206 158.052C171.518 156.701 172.581 155.497 173.192 155.115C174.477 154.312 176.445 153.778 178.115 154.165C178.985 154.367 179.768 154.735 180.432 155.224C182.172 156.505 183.094 158.612 182.612 160.693C181.946 163.569 178.853 165.309 175.703 164.58C172.553 163.85 170.54 160.928 171.206 158.052Z" fill="#FBB812"/>
<path d="M178.115 154.165C178.985 154.367 179.768 154.735 180.432 155.224C180.131 153.587 178.975 151.396 176.4 151.417C173.927 151.437 173.063 153.792 173.192 155.115C174.477 154.312 176.445 153.778 178.115 154.165Z" fill="#242424"/>
<path d="M207.206 165.052C207.518 163.701 208.581 162.497 209.192 162.115C210.477 161.312 212.445 160.778 214.115 161.165C214.985 161.367 215.768 161.735 216.432 162.224C218.172 163.505 219.094 165.612 218.612 167.693C217.946 170.569 214.853 172.309 211.703 171.58C208.553 170.85 206.54 167.928 207.206 165.052Z" fill="#FBB812"/>
<path d="M214.115 161.165C214.985 161.367 215.768 161.735 216.432 162.224C216.131 160.587 214.975 158.396 212.4 158.417C209.927 158.437 209.063 160.792 209.192 162.115C210.477 161.312 212.445 160.778 214.115 161.165Z" fill="#242424"/>
<path d="M242.644 167.844C241.992 166.62 242.002 165.015 242.212 164.326C242.653 162.876 243.785 161.181 245.298 160.375C246.086 159.955 246.919 159.718 247.741 159.651C249.895 159.473 251.973 160.455 252.978 162.341C254.365 164.946 253.177 168.291 250.323 169.81C247.469 171.33 244.031 170.45 242.644 167.844Z" fill="#FBB812"/>
<path d="M245.298 160.375C246.086 159.955 246.919 159.718 247.741 159.651C246.438 158.614 244.127 157.722 242.2 159.43C240.348 161.07 241.245 163.413 242.212 164.326C242.653 162.876 243.785 161.181 245.298 160.375Z" fill="#242424"/>
<path d="M223.822 192.786C223.496 191.438 223.906 189.886 224.281 189.271C225.07 187.977 226.589 186.618 228.255 186.215C229.123 186.005 229.989 185.983 230.802 186.122C232.932 186.487 234.7 187.957 235.202 190.033C235.896 192.903 233.911 195.845 230.769 196.605C227.626 197.365 224.516 195.656 223.822 192.786Z" fill="#FBB812"/>
<path d="M228.255 186.215C229.123 186.005 229.989 185.983 230.802 186.122C229.799 184.794 227.783 183.353 225.49 184.527C223.289 185.653 223.572 188.146 224.281 189.271C225.07 187.977 226.589 186.618 228.255 186.215Z" fill="#242424"/>
<path d="M193.822 217.786C193.496 216.438 193.906 214.886 194.281 214.271C195.07 212.977 196.589 211.618 198.255 211.215C199.123 211.005 199.989 210.983 200.802 211.122C202.932 211.487 204.7 212.957 205.202 215.033C205.896 217.903 203.911 220.845 200.769 221.605C197.626 222.365 194.516 220.656 193.822 217.786Z" fill="#FBB812"/>
<path d="M198.255 211.215C199.123 211.005 199.989 210.983 200.802 211.122C199.799 209.794 197.783 208.353 195.49 209.527C193.289 210.653 193.572 213.146 194.281 214.271C195.07 212.977 196.589 211.618 198.255 211.215Z" fill="#242424"/>
<path d="M160.371 234.425C160.375 233.038 161.143 231.628 161.654 231.12C162.728 230.051 164.528 229.093 166.242 229.098C167.135 229.101 167.981 229.286 168.737 229.615C170.719 230.477 172.086 232.325 172.079 234.462C172.07 237.414 169.442 239.798 166.208 239.788C162.975 239.778 160.362 237.377 160.371 234.425Z" fill="#FBB812"/>
<path d="M166.242 229.098C167.135 229.101 167.981 229.286 168.737 229.615C168.079 228.086 166.465 226.207 163.958 226.8C161.552 227.37 161.234 229.858 161.654 231.12C162.728 230.051 164.528 229.093 166.242 229.098Z" fill="#242424"/>
<path d="M123.018 247.251C123.022 245.864 123.79 244.454 124.301 243.946C125.375 242.877 127.174 241.919 128.888 241.924C129.781 241.927 130.627 242.112 131.383 242.441C133.365 243.303 134.732 245.151 134.726 247.288C134.717 250.24 132.088 252.625 128.855 252.614C125.622 252.604 123.008 250.203 123.018 247.251Z" fill="#FBB812"/>
<path d="M128.888 241.924C129.781 241.927 130.627 242.112 131.383 242.441C130.726 240.912 129.111 239.033 126.605 239.626C124.198 240.196 123.88 242.684 124.301 243.946C125.375 242.877 127.174 241.919 128.888 241.924Z" fill="#242424"/>
<path d="M74.991 253.693C75.5074 252.406 76.7419 251.38 77.4041 251.096C78.7969 250.5 80.8234 250.274 82.4143 250.912C83.2432 251.245 83.9606 251.73 84.5419 252.314C86.0651 253.847 86.6529 256.07 85.8574 258.053C84.7582 260.793 81.4347 262.038 78.434 260.834C75.4333 259.63 73.8918 256.433 74.991 253.693Z" fill="#FBB812"/>
<path d="M82.4143 250.912C83.2432 251.245 83.9606 251.73 84.5419 252.314C84.4956 250.65 83.6895 248.308 81.1412 247.933C78.6943 247.574 77.4797 249.769 77.4041 251.096C78.7969 250.5 80.8234 250.274 82.4143 250.912Z" fill="#242424"/>
<path d="M3.38843 254.495C4.26763 253.422 5.75348 252.814 6.47031 252.742C7.97795 252.592 9.97866 252.985 11.3044 254.072C11.995 254.638 12.5338 255.316 12.9125 256.049C13.9048 257.968 13.7978 260.265 12.4432 261.917C10.5718 264.2 7.0277 264.389 4.52729 262.34C2.02687 260.29 1.51699 256.778 3.38843 254.495Z" fill="#FBB812"/>
<path d="M11.3044 254.072C11.995 254.638 12.5338 255.316 12.9125 256.049C13.3682 254.447 13.3031 251.971 10.985 250.848C8.75909 249.77 6.94124 251.499 6.47031 252.742C7.97795 252.592 9.97866 252.985 11.3044 254.072Z" fill="#242424"/>
<path d="M40.8067 282.796C41.2754 281.49 42.4713 280.419 43.1227 280.112C44.4927 279.464 46.5095 279.164 48.1228 279.744C48.9633 280.045 49.6981 280.503 50.3005 281.066C51.879 282.542 52.5481 284.742 51.826 286.753C50.8283 289.531 47.5528 290.897 44.5099 289.805C41.467 288.712 39.809 285.574 40.8067 282.796Z" fill="#FBB812"/>
<path d="M48.1228 279.744C48.9633 280.045 49.6981 280.503 50.3005 281.066C50.1931 279.405 49.3014 277.094 46.741 276.813C44.2825 276.544 43.1494 278.782 43.1227 280.112C44.4927 279.464 46.5095 279.164 48.1228 279.744Z" fill="#242424"/>
<path d="M86.8067 307.796C87.2754 306.49 88.4713 305.419 89.1227 305.112C90.4927 304.464 92.5095 304.164 94.1228 304.744C94.9633 305.045 95.6981 305.503 96.3005 306.066C97.879 307.542 98.5481 309.742 97.826 311.753C96.8283 314.531 93.5528 315.897 90.5099 314.805C87.467 313.712 85.809 310.574 86.8067 307.796Z" fill="#FBB812"/>
<path d="M94.1228 304.744C94.9633 305.045 95.6981 305.503 96.3005 306.066C96.1931 304.405 95.3014 302.094 92.741 301.813C90.2825 301.544 89.1494 303.782 89.1227 305.112C90.4927 304.464 92.5095 304.164 94.1228 304.744Z" fill="#242424"/>
<path d="M142.755 330.938C142.966 329.568 143.936 328.288 144.517 327.862C145.739 326.966 147.662 326.288 149.356 326.549C150.239 326.686 151.047 326.995 151.746 327.434C153.576 328.582 154.652 330.614 154.326 332.725C153.875 335.643 150.919 337.608 147.724 337.114C144.529 336.621 142.304 333.856 142.755 330.938Z" fill="#FBB812"/>
<path d="M149.356 326.549C150.239 326.686 151.047 326.995 151.746 327.434C151.324 325.823 150.009 323.724 147.442 323.936C144.977 324.139 144.291 326.552 144.517 327.862C145.739 326.966 147.662 326.288 149.356 326.549Z" fill="#242424"/>
<path d="M206.815 349.161C207.027 347.79 207.997 346.511 208.578 346.085C209.8 345.189 211.722 344.51 213.417 344.772C214.299 344.908 215.108 345.218 215.806 345.656C217.637 346.805 218.712 348.836 218.386 350.948C217.936 353.865 214.98 355.83 211.785 355.337C208.59 354.843 206.365 352.078 206.815 349.161Z" fill="#FBB812"/>
<path d="M213.417 344.772C214.299 344.908 215.108 345.218 215.806 345.656C215.385 344.046 214.069 341.946 211.502 342.158C209.037 342.362 208.351 344.775 208.578 346.085C209.8 345.189 211.722 344.51 213.417 344.772Z" fill="#242424"/>
<path d="M277.815 357.161C278.027 355.79 278.997 354.511 279.578 354.085C280.8 353.189 282.722 352.51 284.417 352.772C285.299 352.908 286.108 353.218 286.806 353.656C288.637 354.805 289.712 356.836 289.386 358.948C288.936 361.865 285.98 363.83 282.785 363.337C279.59 362.843 277.365 360.078 277.815 357.161Z" fill="#FBB812"/>
<path d="M284.417 352.772C285.299 352.908 286.108 353.218 286.806 353.656C286.385 352.046 285.069 349.946 282.502 350.158C280.037 350.362 279.351 352.775 279.578 354.085C280.8 353.189 282.722 352.51 284.417 352.772Z" fill="#242424"/>
<path d="M353.274 358.473C352.688 357.216 352.784 355.613 353.03 354.936C353.547 353.512 354.769 351.879 356.322 351.155C357.132 350.778 357.976 350.585 358.8 350.561C360.96 350.499 362.984 351.59 363.887 353.526C365.134 356.202 363.769 359.478 360.838 360.844C357.908 362.21 354.521 361.148 353.274 358.473Z" fill="#FBB812"/>
<path d="M356.322 351.155C357.132 350.778 357.976 350.585 358.8 350.561C357.555 349.457 355.294 348.443 353.278 350.046C351.343 351.586 352.113 353.973 353.03 354.936C353.547 353.512 354.769 351.879 356.322 351.155Z" fill="#242424"/>
<path d="M137.442 55.9046C137.363 54.52 138.045 53.0665 138.524 52.5286C139.532 51.3973 141.271 50.3324 142.982 50.2348C143.874 50.1839 144.729 50.318 145.504 50.6008C147.534 51.342 149.009 53.1046 149.131 55.2378C149.299 58.185 146.819 60.7235 143.591 60.9076C140.363 61.0917 137.61 58.8518 137.442 55.9046Z" fill="#FBB812"/>
<path d="M142.982 50.2348C143.874 50.1839 144.729 50.318 145.504 50.6008C144.755 49.1139 143.031 47.3352 140.565 48.0782C138.197 48.7916 138.029 51.2945 138.524 52.5286C139.532 51.3973 141.271 50.3324 142.982 50.2348Z" fill="#242424"/>
</svg>
