<svg width="479" height="580" viewBox="0 0 479 580" fill="none" xmlns="http://www.w3.org/2000/svg">
<path d="M248.5 34C256.833 61.1667 285.3 121.8 332.5 147C323.667 147.833 303 145.6 291 130C299.5 144.333 323.5 173.3 351.5 174.5C350.5 176.167 346.5 180.2 338.5 183C339.167 184.167 342.7 186.7 351.5 187.5C349.333 189.667 341.9 193.5 329.5 191.5C332.333 193.667 339.1 198.3 343.5 199.5C339.652 201.537 331.254 204.497 321 204.934C329.5 219.623 354.6 250.9 387 258.5C385.5 262 378.1 269.2 360.5 270L371 279C366.5 280 354.7 280.9 343.5 276.5C344.667 278.5 348.9 284 356.5 290C353.696 290.812 349.004 291.591 343.5 291.513C350.833 308.675 376.1 342.5 418.5 340.5C416 344.667 403.6 351.6 374 346C377.333 351.167 385.9 362.4 393.5 366C388.643 366.389 379.902 366.12 371 363.77C375.5 375.68 394.3 400.3 433.5 403.5C430.333 407.5 419 414.3 399 409.5C399.833 411.5 404.9 416.6 418.5 421C415 423.667 405.1 427.4 393.5 421C398 425 411.2 434.1 428 438.5C422.177 441.665 413.234 445.094 403 446.706C414 453.471 443.5 467.6 473.5 470C466.5 475.667 445.7 485.7 418.5 480.5C426.833 485.5 448.1 495.2 466.5 494C459.833 500.167 439.6 511.4 412 507C415.667 510 425 516.1 433 516.5C432.167 519.333 426.8 524.5 412 522.5C414 525.833 421.8 532.6 437 533C430 537.167 410.1 544.6 386.5 541C387.833 544 393.3 550.4 404.5 552C398.5 555.167 378.3 559.4 345.5 551C345.833 553.5 348 559.2 354 562C347.333 561.333 332.3 558.8 325.5 554C326.333 556.667 329.5 563 335.5 567C324.833 568.167 299.6 567.4 284 555C283 559.833 282.7 571.1 289.5 577.5C282.667 574.667 267.7 566.1 262.5 554.5C259.333 556.167 252.5 561.3 250.5 568.5C249.167 565.5 245.8 558.5 243 554.5C241 557.667 234.4 564.3 224 565.5C227 563.833 232.7 558.3 231.5 549.5C221.5 555.333 195.7 567.3 172.5 568.5C176.333 566.167 184.1 559.7 184.5 552.5C181.667 554.833 173.6 559.2 164 558C166.333 556.833 171.3 553.3 172.5 548.5C157.833 553.833 124 562.8 106 556C113.167 552.833 128.4 544.8 132 538C127.167 540.333 115.3 544.4 106.5 542C110.667 540.667 119.3 536.8 120.5 532C104.667 537.667 66.5 546.1 40.5 534.5C48 533.5 63.7 529.4 66.5 521C57.5 522.5 38.6 524.6 35 521C41.1667 519.5 54.1 515.3 56.5 510.5C43.3333 511.833 11.8 509.6 5 502C21 500.5 64 483.047 62 471.915C58.8811 471.118 55.713 470.151 52.5 469C62.1667 467.5 82.8 461.9 88 451.5C85.8333 454.833 74.9 459.9 48.5 453.5C56.5 452.167 73.3 447 76.5 437C65 439.167 39.7 442.2 30.5 437C59.3333 426.371 116.9 398.351 116.5 371.306C108.202 371.834 97.5586 370.74 84.5 366.5C87.8529 365.726 93.0418 364.154 97.5 361.99C92 361.327 79.7 358.6 74.5 353C98.2494 342.333 147.024 315.5 152.124 293.5C145.29 294.758 136.772 295.159 127 293.5C132.167 290.667 143.2 283.3 146 276.5C143.333 279.5 133.7 284.5 116.5 280.5C112 279 102.4 274.5 100 268.5C125 275.5 170.5 238.5 180 215.917C174.971 217.707 169.421 219 164 219C166.833 218 172.8 214.5 174 208.5C171.667 212.167 162.2 218 143 212L150 206H125.5C145 195.833 187 169.8 199 147C202.167 145.667 208.8 141.9 210 137.5C207.833 138.833 201.6 141.4 194 141C197.5 138.667 204.6 133.2 205 130C199.5 134 183 138.9 167 134.5C194.333 119.167 237 79 248.5 34Z" fill="#2A4639"/>
<path d="M291 130C303 145.6 323.667 147.833 332.5 147C285.3 121.8 256.833 61.1667 248.5 34C237 79 194.333 119.167 167 134.5C183 138.9 199.5 134 205 130C204.6 133.2 197.5 138.667 194 141C201.6 141.4 207.833 138.833 210 137.5C208.8 141.9 202.167 145.667 199 147M291 130C290.833 134.667 290.9 144.4 292.5 146C288 143.5 278.9 136.4 278.5 128C277.333 132.5 276.5 144.6 282.5 157C275.862 154.295 264.164 147.855 258 139.525M291 130C299.5 144.333 323.5 173.3 351.5 174.5C350.5 176.167 346.5 180.2 338.5 183C339.167 184.167 342.7 186.7 351.5 187.5C349.333 189.667 341.9 193.5 329.5 191.5C332.333 193.667 339.1 198.3 343.5 199.5C339.652 201.537 331.254 204.497 321 204.934M254 130C254.315 133.359 255.807 136.562 258 139.525M258 139.525C258 144.85 258.1 156.2 258.5 159C259 162.5 241 148.5 237 134.5C230.5 139.333 213.8 148.6 199 147M199 147C187 169.8 145 195.833 125.5 206H150M157 200L150 206M150 206L143 212C162.2 218 171.667 212.167 174 208.5C172.8 214.5 166.833 218 164 219C169.421 219 174.971 217.707 180 215.917M321 204.934C316.153 205.141 310.892 204.784 305.5 203.5C304.5 205.833 303.6 211.9 308 217.5C300.667 217 285.3 214.2 282.5 207C282.5 211.167 282.5 220.5 282.5 224.5C277.333 223.5 266.6 218.6 265 207C266.667 209.833 267.7 217.7 258.5 226.5C258.333 223.667 256.8 217.1 252 213.5C250.333 215.5 245.5 219.7 239.5 220.5V211C234.167 216.833 219.6 228.3 204 227.5C206.833 224.333 212.8 217.1 214 213.5C210.5 216.167 200.3 221 187.5 219C190.167 216.833 195.7 211.5 196.5 207.5C193.357 209.759 187.216 213.349 180 215.917M321 204.934C329.5 219.623 354.6 250.9 387 258.5C385.5 262 378.1 269.2 360.5 270L371 279C366.5 280 354.7 280.9 343.5 276.5C344.667 278.5 348.9 284 356.5 290C353.696 290.812 349.004 291.591 343.5 291.513M180 215.917C170.5 238.5 125 275.5 100 268.5C102.4 274.5 112 279 116.5 280.5C133.7 284.5 143.333 279.5 146 276.5C143.2 283.3 132.167 290.667 127 293.5C136.772 295.159 145.29 294.758 152.124 293.5M343.5 291.513C336.572 291.414 328.356 289.958 321 285.5L325 298.5C318.667 295.667 306.2 289.1 307 285.5L314.5 309.5C307.5 306.833 292.4 299.9 288 293.5L284.5 306L272.5 296C272.667 302.833 272.5 317.1 270.5 319.5C268.5 321.9 257 304.833 251.5 296C248.333 302.167 241.1 314.6 237.5 315C237.333 308.5 236.5 295.2 234.5 294C228.333 299.333 214.8 310.2 210 311C211.667 307.5 214.5 299.2 212.5 294C206.333 297.167 190 303.4 174 303C175.833 301 179.6 296.1 180 292.5C176.5 294.5 167.7 298.4 160.5 298C163 295.667 168.1 290.3 168.5 287.5C165.805 289.387 160.116 292.029 152.124 293.5M343.5 291.513C350.833 308.675 376.1 342.5 418.5 340.5C416 344.667 403.6 351.6 374 346C377.333 351.167 385.9 362.4 393.5 366C388.643 366.389 379.902 366.12 371 363.77M128.729 369C136.729 371.8 145.667 370.5 148.5 369C148.5 374.2 138.5 378.833 133.5 380.5C155.1 384.5 173.833 372.833 180.5 366.5C180.9 369.3 175.333 377 172.5 380.5C179.7 382.5 188.167 375.667 191.5 372C193.1 376.4 187.833 384.167 185 387.5C205.4 386.7 221.167 373.167 226.5 366.5C225.7 371.7 223.167 378 222 380.5C228.4 378.1 240 367.833 245 363C243.4 371.4 247.667 382.833 250 387.5C259.2 379.9 260.833 368 260.5 363C266.9 375 286.167 386.333 295 390.5C292.2 384.9 292.167 370.833 292.5 364.5C294.1 372.9 305.833 380.333 311.5 383C307.9 378.6 307.667 371.5 308 368.5C322.8 384.5 343.5 384.833 352 383C345.2 379 337.833 365.333 335 359C337.4 366.2 353 370 360.5 371C356.5 368.6 353.833 359.333 353 355C358.173 359.339 364.628 362.088 371 363.77M137.5 364C134.716 366.88 127.773 370.59 116.5 371.306M106 354.5C105.225 357.405 101.685 359.958 97.5 361.99M97.5 361.99C93.0418 364.154 87.8529 365.726 84.5 366.5C97.5586 370.74 108.202 371.834 116.5 371.306M97.5 361.99C92 361.327 79.7 358.6 74.5 353C98.2494 342.333 147.024 315.5 152.124 293.5M371 363.77C375.5 375.68 394.3 400.3 433.5 403.5C430.333 407.5 419 414.3 399 409.5C399.833 411.5 404.9 416.6 418.5 421C415 423.667 405.1 427.4 393.5 421C398 425 411.2 434.1 428 438.5C422.177 441.665 413.234 445.094 403 446.706M298.5 451C301.902 454.202 305.685 457.022 309.695 459.5M309.695 459.5C329.729 471.881 355.418 475.722 367.5 476C353.5 462.4 350.333 440.333 350.5 431C366.13 447.126 386.286 449.339 403 446.706M309.695 459.5L315 477C306.757 473.78 290.95 466.46 280.5 458.315M273 451C274.818 453.454 277.427 455.92 280.5 458.315M280.5 458.315C278.5 462.71 275.7 473.3 280.5 480.5C273.167 479 255.3 470.7 242.5 449.5C243.167 455.167 242.7 469 235.5 479C234.787 473.151 231.851 461.195 225.5 454.11M222 451C223.267 451.864 224.432 452.918 225.5 454.11M225.5 454.11C222.5 458.906 213.5 469.1 201.5 471.5C204.5 466.5 210.2 455.1 209 449.5C199 458.333 174.6 476.3 157 477.5C160 472.073 166 459.797 166 454.11C163.5 458.74 146.9 467.499 122.5 467.499M151.5 448C139.37 461.218 105.475 483.027 62 471.915M116.5 371.306C116.9 398.351 59.3333 426.371 30.5 437C39.7 442.2 65 439.167 76.5 437C73.3 447 56.5 452.167 48.5 453.5C74.9 459.9 85.8333 454.833 88 451.5C82.8 461.9 62.1667 467.5 52.5 469C55.713 470.151 58.8811 471.118 62 471.915M403 446.706C414 453.471 443.5 467.6 473.5 470C466.5 475.667 445.7 485.7 418.5 480.5C426.833 485.5 448.1 495.2 466.5 494C459.833 500.167 439.6 511.4 412 507C415.667 510 425 516.1 433 516.5C432.167 519.333 426.8 524.5 412 522.5C414 525.833 421.8 532.6 437 533C430 537.167 410.1 544.6 386.5 541C387.833 544 393.3 550.4 404.5 552C398.5 555.167 378.3 559.4 345.5 551C345.833 553.5 348 559.2 354 562C347.333 561.333 332.3 558.8 325.5 554C326.333 556.667 329.5 563 335.5 567C324.833 568.167 299.6 567.4 284 555C283 559.833 282.7 571.1 289.5 577.5C282.667 574.667 267.7 566.1 262.5 554.5C259.333 556.167 252.5 561.3 250.5 568.5C249.167 565.5 245.8 558.5 243 554.5C241 557.667 234.4 564.3 224 565.5C227 563.833 232.7 558.3 231.5 549.5C221.5 555.333 195.7 567.3 172.5 568.5C176.333 566.167 184.1 559.7 184.5 552.5C181.667 554.833 173.6 559.2 164 558C166.333 556.833 171.3 553.3 172.5 548.5C157.833 553.833 124 562.8 106 556C113.167 552.833 128.4 544.8 132 538C127.167 540.333 115.3 544.4 106.5 542C110.667 540.667 119.3 536.8 120.5 532C104.667 537.667 66.5 546.1 40.5 534.5C48 533.5 63.7 529.4 66.5 521C57.5 522.5 38.6 524.6 35 521C41.1667 519.5 54.1 515.3 56.5 510.5C43.3333 511.833 11.8 509.6 5 502C21 500.5 64 483.047 62 471.915" stroke="#11291E" stroke-width="4"/>
<path d="M302.5 121.5C280.833 149 204 199.5 146 211.5C169.833 235.167 252.4 280.5 348 280.5C330.5 311.167 265.7 380 114.5 372C159.333 411.333 293.1 486 469.5 470" stroke="#BFBFBF" stroke-width="3"/>
<path d="M289.442 140.405C289.363 139.02 290.045 137.566 290.524 137.029C291.532 135.897 293.271 134.832 294.982 134.735C295.874 134.684 296.729 134.818 297.504 135.101C299.534 135.842 301.009 137.605 301.131 139.738C301.299 142.685 298.819 145.223 295.591 145.408C292.363 145.592 289.61 143.352 289.442 140.405Z" fill="#BFBFBF"/>
<path d="M294.982 134.735C295.874 134.684 296.729 134.818 297.504 135.101C296.755 133.614 295.031 131.835 292.565 132.578C290.197 133.292 290.029 135.794 290.524 137.029C291.532 135.897 293.271 134.832 294.982 134.735Z" fill="#BFBFBF"/>
<path d="M265.442 159.405C265.363 158.02 266.045 156.566 266.524 156.029C267.532 154.897 269.271 153.832 270.982 153.735C271.874 153.684 272.729 153.818 273.504 154.101C275.534 154.842 277.009 156.605 277.131 158.738C277.299 161.685 274.819 164.223 271.591 164.408C268.363 164.592 265.61 162.352 265.442 159.405Z" fill="#BFBFBF"/>
<path d="M270.982 153.735C271.874 153.684 272.729 153.818 273.504 154.101C272.755 152.614 271.031 150.835 268.565 151.578C266.197 152.292 266.029 154.794 266.524 156.029C267.532 154.897 269.271 153.832 270.982 153.735Z" fill="#BFBFBF"/>
<path d="M210.442 192.405C210.363 191.02 211.045 189.566 211.524 189.029C212.532 187.897 214.271 186.832 215.982 186.735C216.874 186.684 217.729 186.818 218.504 187.101C220.534 187.842 222.009 189.605 222.131 191.738C222.299 194.685 219.819 197.223 216.591 197.408C213.363 197.592 210.61 195.352 210.442 192.405Z" fill="#BFBFBF"/>
<path d="M215.982 186.735C216.874 186.684 217.729 186.818 218.504 187.101C217.755 185.614 216.031 183.835 213.565 184.578C211.197 185.292 211.029 187.794 211.524 189.029C212.532 187.897 214.271 186.832 215.982 186.735Z" fill="#BFBFBF"/>
<path d="M170.442 210.405C170.363 209.02 171.045 207.566 171.524 207.029C172.532 205.897 174.271 204.832 175.982 204.735C176.874 204.684 177.729 204.818 178.504 205.101C180.534 205.842 182.009 207.605 182.131 209.738C182.299 212.685 179.819 215.223 176.591 215.408C173.363 215.592 170.61 213.352 170.442 210.405Z" fill="#BFBFBF"/>
<path d="M175.982 204.735C176.874 204.684 177.729 204.818 178.504 205.101C177.755 203.614 176.031 201.835 173.565 202.578C171.197 203.292 171.029 205.794 171.524 207.029C172.532 205.897 174.271 204.832 175.982 204.735Z" fill="#BFBFBF"/>
<path d="M146.708 219.668C147.93 219.012 149.535 219.016 150.225 219.223C151.676 219.659 153.376 220.785 154.187 222.295C154.61 223.082 154.85 223.914 154.92 224.735C155.106 226.888 154.132 228.971 152.249 229.982C149.649 231.379 146.3 230.203 144.77 227.355C143.24 224.507 144.107 221.065 146.708 219.668Z" fill="#BFBFBF"/>
<path d="M154.187 222.295C154.61 223.082 154.85 223.914 154.92 224.735C155.952 223.429 156.836 221.115 155.121 219.193C153.474 217.348 151.134 218.253 150.225 219.223C151.676 219.659 153.376 220.785 154.187 222.295Z" fill="#BFBFBF"/>
<path d="M173.196 239.578C174.054 238.488 175.528 237.851 176.243 237.766C177.748 237.586 179.756 237.941 181.102 239.001C181.804 239.554 182.356 240.221 182.748 240.946C183.778 242.846 183.716 245.144 182.393 246.823C180.567 249.142 177.027 249.4 174.487 247.399C171.947 245.398 171.369 241.897 173.196 239.578Z" fill="#BFBFBF"/>
<path d="M181.102 239.001C181.804 239.554 182.356 240.221 182.748 240.946C183.173 239.336 183.06 236.862 180.72 235.784C178.474 234.75 176.69 236.513 176.243 237.766C177.748 237.586 179.756 237.941 181.102 239.001Z" fill="#BFBFBF"/>
<path d="M202.307 254.089C203.165 253 204.639 252.363 205.355 252.278C206.859 252.098 208.867 252.452 210.214 253.513C210.915 254.066 211.467 254.733 211.86 255.458C212.889 257.358 212.827 259.656 211.505 261.334C209.678 263.653 206.138 263.911 203.599 261.911C201.059 259.91 200.481 256.408 202.307 254.089Z" fill="#BFBFBF"/>
<path d="M210.214 253.513C210.915 254.066 211.467 254.733 211.86 255.458C212.284 253.848 212.171 251.373 209.832 250.296C207.585 249.261 205.801 251.025 205.355 252.278C206.859 252.098 208.867 252.452 210.214 253.513Z" fill="#BFBFBF"/>
<path d="M239.206 270.552C239.518 269.201 240.581 267.997 241.192 267.615C242.477 266.812 244.445 266.278 246.115 266.665C246.985 266.867 247.768 267.235 248.432 267.724C250.172 269.005 251.094 271.112 250.612 273.193C249.946 276.069 246.853 277.809 243.703 277.08C240.553 276.35 238.54 273.428 239.206 270.552Z" fill="#BFBFBF"/>
<path d="M246.115 266.665C246.985 266.867 247.768 267.235 248.432 267.724C248.131 266.087 246.975 263.896 244.4 263.917C241.927 263.937 241.063 266.292 241.192 267.615C242.477 266.812 244.445 266.278 246.115 266.665Z" fill="#BFBFBF"/>
<path d="M275.206 278.552C275.518 277.201 276.581 275.997 277.192 275.615C278.477 274.812 280.445 274.278 282.115 274.665C282.985 274.867 283.768 275.235 284.432 275.724C286.172 277.005 287.094 279.112 286.612 281.193C285.946 284.069 282.853 285.809 279.703 285.08C276.553 284.35 274.54 281.428 275.206 278.552Z" fill="#BFBFBF"/>
<path d="M282.115 274.665C282.985 274.867 283.768 275.235 284.432 275.724C284.131 274.087 282.975 271.896 280.4 271.917C277.927 271.937 277.063 274.292 277.192 275.615C278.477 274.812 280.445 274.278 282.115 274.665Z" fill="#BFBFBF"/>
<path d="M311.206 285.552C311.518 284.201 312.581 282.997 313.192 282.615C314.477 281.812 316.445 281.278 318.115 281.665C318.985 281.867 319.768 282.235 320.432 282.724C322.172 284.005 323.094 286.112 322.612 288.193C321.946 291.069 318.853 292.809 315.703 292.08C312.553 291.35 310.54 288.428 311.206 285.552Z" fill="#BFBFBF"/>
<path d="M318.115 281.665C318.985 281.867 319.768 282.235 320.432 282.724C320.131 281.087 318.975 278.896 316.4 278.917C313.927 278.937 313.063 281.292 313.192 282.615C314.477 281.812 316.445 281.278 318.115 281.665Z" fill="#BFBFBF"/>
<path d="M346.644 288.344C345.992 287.12 346.002 285.515 346.212 284.826C346.653 283.376 347.785 281.681 349.298 280.875C350.086 280.455 350.919 280.218 351.741 280.151C353.895 279.973 355.973 280.955 356.978 282.841C358.365 285.446 357.177 288.791 354.323 290.31C351.469 291.83 348.031 290.95 346.644 288.344Z" fill="#BFBFBF"/>
<path d="M349.298 280.875C350.086 280.455 350.919 280.218 351.741 280.151C350.438 279.114 348.127 278.222 346.2 279.93C344.348 281.57 345.245 283.913 346.212 284.826C346.653 283.376 347.785 281.681 349.298 280.875Z" fill="#BFBFBF"/>
<path d="M327.822 313.286C327.496 311.938 327.906 310.386 328.281 309.771C329.07 308.477 330.589 307.118 332.255 306.715C333.123 306.505 333.989 306.483 334.802 306.622C336.932 306.987 338.7 308.457 339.202 310.533C339.896 313.403 337.911 316.345 334.769 317.105C331.626 317.865 328.516 316.156 327.822 313.286Z" fill="#BFBFBF"/>
<path d="M332.255 306.715C333.123 306.505 333.989 306.483 334.802 306.622C333.799 305.294 331.783 303.853 329.49 305.027C327.289 306.153 327.572 308.646 328.281 309.771C329.07 308.477 330.589 307.118 332.255 306.715Z" fill="#BFBFBF"/>
<path d="M297.822 338.286C297.496 336.938 297.906 335.386 298.281 334.771C299.07 333.477 300.589 332.118 302.255 331.715C303.123 331.505 303.989 331.483 304.802 331.622C306.932 331.987 308.7 333.457 309.202 335.533C309.896 338.403 307.911 341.345 304.769 342.105C301.626 342.865 298.516 341.156 297.822 338.286Z" fill="#BFBFBF"/>
<path d="M302.255 331.715C303.123 331.505 303.989 331.483 304.802 331.622C303.799 330.294 301.783 328.853 299.49 330.027C297.289 331.153 297.572 333.646 298.281 334.771C299.07 333.477 300.589 332.118 302.255 331.715Z" fill="#BFBFBF"/>
<path d="M264.371 354.925C264.375 353.538 265.143 352.128 265.654 351.62C266.728 350.551 268.528 349.593 270.242 349.598C271.135 349.601 271.981 349.786 272.737 350.115C274.719 350.977 276.086 352.825 276.079 354.962C276.07 357.914 273.442 360.298 270.208 360.288C266.975 360.278 264.362 357.877 264.371 354.925Z" fill="#BFBFBF"/>
<path d="M270.242 349.598C271.135 349.601 271.981 349.786 272.737 350.115C272.079 348.586 270.465 346.707 267.958 347.3C265.552 347.87 265.234 350.358 265.654 351.62C266.728 350.551 268.528 349.593 270.242 349.598Z" fill="#BFBFBF"/>
<path d="M227.018 367.751C227.022 366.364 227.79 364.954 228.301 364.446C229.375 363.377 231.174 362.419 232.888 362.424C233.781 362.427 234.627 362.612 235.383 362.941C237.365 363.803 238.732 365.651 238.726 367.788C238.717 370.74 236.088 373.125 232.855 373.114C229.622 373.104 227.008 370.703 227.018 367.751Z" fill="#BFBFBF"/>
<path d="M232.888 362.424C233.781 362.427 234.627 362.612 235.383 362.941C234.726 361.412 233.111 359.533 230.605 360.126C228.198 360.696 227.88 363.184 228.301 364.446C229.375 363.377 231.174 362.419 232.888 362.424Z" fill="#BFBFBF"/>
<path d="M178.991 374.193C179.507 372.906 180.742 371.88 181.404 371.596C182.797 371 184.823 370.774 186.414 371.412C187.243 371.745 187.961 372.23 188.542 372.814C190.065 374.347 190.653 376.57 189.857 378.553C188.758 381.293 185.435 382.538 182.434 381.334C179.433 380.13 177.892 376.933 178.991 374.193Z" fill="#BFBFBF"/>
<path d="M186.414 371.412C187.243 371.745 187.961 372.23 188.542 372.814C188.496 371.15 187.69 368.808 185.141 368.433C182.694 368.074 181.48 370.269 181.404 371.596C182.797 371 184.823 370.774 186.414 371.412Z" fill="#BFBFBF"/>
<path d="M107.388 374.995C108.268 373.922 109.753 373.314 110.47 373.242C111.978 373.092 113.979 373.485 115.304 374.572C115.995 375.138 116.534 375.816 116.912 376.549C117.905 378.468 117.798 380.765 116.443 382.417C114.572 384.7 111.028 384.889 108.527 382.84C106.027 380.79 105.517 377.278 107.388 374.995Z" fill="#BFBFBF"/>
<path d="M115.304 374.572C115.995 375.138 116.534 375.816 116.912 376.549C117.368 374.947 117.303 372.471 114.985 371.348C112.759 370.27 110.941 371.999 110.47 373.242C111.978 373.092 113.979 373.485 115.304 374.572Z" fill="#BFBFBF"/>
<path d="M144.807 403.296C145.275 401.99 146.471 400.919 147.123 400.612C148.493 399.964 150.509 399.664 152.123 400.244C152.963 400.545 153.698 401.003 154.3 401.566C155.879 403.042 156.548 405.242 155.826 407.253C154.828 410.031 151.553 411.397 148.51 410.305C145.467 409.212 143.809 406.074 144.807 403.296Z" fill="#BFBFBF"/>
<path d="M152.123 400.244C152.963 400.545 153.698 401.003 154.3 401.566C154.193 399.905 153.301 397.594 150.741 397.313C148.283 397.044 147.149 399.282 147.123 400.612C148.493 399.964 150.509 399.664 152.123 400.244Z" fill="#BFBFBF"/>
<path d="M190.807 428.296C191.275 426.99 192.471 425.919 193.123 425.612C194.493 424.964 196.509 424.664 198.123 425.244C198.963 425.545 199.698 426.003 200.3 426.566C201.879 428.042 202.548 430.242 201.826 432.253C200.828 435.031 197.553 436.397 194.51 435.305C191.467 434.212 189.809 431.074 190.807 428.296Z" fill="#BFBFBF"/>
<path d="M198.123 425.244C198.963 425.545 199.698 426.003 200.3 426.566C200.193 424.905 199.301 422.594 196.741 422.313C194.283 422.044 193.149 424.282 193.123 425.612C194.493 424.964 196.509 424.664 198.123 425.244Z" fill="#BFBFBF"/>
<path d="M246.755 451.438C246.966 450.068 247.936 448.788 248.517 448.362C249.739 447.466 251.662 446.788 253.356 447.049C254.239 447.186 255.047 447.495 255.746 447.934C257.576 449.082 258.652 451.114 258.326 453.225C257.875 456.143 254.919 458.108 251.724 457.614C248.529 457.121 246.304 454.356 246.755 451.438Z" fill="#BFBFBF"/>
<path d="M253.356 447.049C254.239 447.186 255.047 447.495 255.746 447.934C255.324 446.323 254.009 444.224 251.442 444.436C248.977 444.639 248.291 447.052 248.517 448.362C249.739 447.466 251.662 446.788 253.356 447.049Z" fill="#BFBFBF"/>
<path d="M310.815 469.661C311.027 468.29 311.997 467.011 312.578 466.585C313.8 465.689 315.722 465.01 317.417 465.272C318.299 465.408 319.108 465.718 319.806 466.156C321.637 467.305 322.712 469.336 322.386 471.448C321.936 474.365 318.98 476.33 315.785 475.837C312.59 475.343 310.365 472.578 310.815 469.661Z" fill="#BFBFBF"/>
<path d="M317.417 465.272C318.299 465.408 319.108 465.718 319.806 466.156C319.385 464.546 318.069 462.446 315.502 462.658C313.037 462.862 312.351 465.275 312.578 466.585C313.8 465.689 315.722 465.01 317.417 465.272Z" fill="#BFBFBF"/>
<path d="M381.815 477.661C382.027 476.29 382.997 475.011 383.578 474.585C384.8 473.689 386.722 473.01 388.417 473.272C389.299 473.408 390.108 473.718 390.806 474.156C392.637 475.305 393.712 477.336 393.386 479.448C392.936 482.365 389.98 484.33 386.785 483.837C383.59 483.343 381.365 480.578 381.815 477.661Z" fill="#BFBFBF"/>
<path d="M388.417 473.272C389.299 473.408 390.108 473.718 390.806 474.156C390.385 472.546 389.069 470.446 386.502 470.658C384.037 470.862 383.351 473.275 383.578 474.585C384.8 473.689 386.722 473.01 388.417 473.272Z" fill="#BFBFBF"/>
<path d="M457.274 478.973C456.688 477.716 456.784 476.113 457.03 475.436C457.547 474.012 458.769 472.379 460.322 471.655C461.132 471.278 461.976 471.085 462.8 471.061C464.96 470.999 466.984 472.09 467.887 474.026C469.134 476.702 467.769 479.978 464.838 481.344C461.908 482.71 458.521 481.648 457.274 478.973Z" fill="#BFBFBF"/>
<path d="M460.322 471.655C461.132 471.278 461.976 471.085 462.8 471.061C461.555 469.957 459.294 468.943 457.278 470.546C455.343 472.086 456.113 474.473 457.03 475.436C457.547 474.012 458.769 472.379 460.322 471.655Z" fill="#BFBFBF"/>
<path d="M241.442 176.405C241.363 175.02 242.045 173.566 242.524 173.029C243.532 171.897 245.271 170.832 246.982 170.735C247.874 170.684 248.729 170.818 249.504 171.101C251.534 171.842 253.009 173.605 253.131 175.738C253.299 178.685 250.819 181.223 247.591 181.408C244.363 181.592 241.61 179.352 241.442 176.405Z" fill="#BFBFBF"/>
<path d="M246.982 170.735C247.874 170.684 248.729 170.818 249.504 171.101C248.755 169.614 247.031 167.835 244.565 168.578C242.197 169.292 242.029 171.794 242.524 173.029C243.532 171.897 245.271 170.832 246.982 170.735Z" fill="#BFBFBF"/>
<circle cx="117.355" cy="436.328" r="19.4434" transform="rotate(7.42989 117.355 436.328)" fill="#BFBFBF" stroke="#BFBFBF"/>
<circle cx="120.719" cy="434.531" r="11.0228" transform="rotate(7.42989 120.719 434.531)" stroke="#BFBFBF"/>
<circle cx="119.497" cy="437.054" r="3.93186" transform="rotate(7.42989 119.497 437.054)" stroke="#BFBFBF"/>
<line x1="119.455" y1="433.518" x2="119.837" y2="423.735" stroke="#BFBFBF"/>
<line x1="121.36" y1="433.412" x2="128.496" y2="426.298" stroke="#BFBFBF"/>
<line x1="123.021" y1="435.306" x2="131.619" y2="431.064" stroke="#BFBFBF"/>
<line x1="122.98" y1="437.013" x2="131.998" y2="436.401" stroke="#BFBFBF"/>
<line x1="122.733" y1="439.653" x2="129.764" y2="440.57" stroke="#BFBFBF"/>
<line x1="121.224" y1="440.54" x2="124.167" y2="445.393" stroke="#BFBFBF"/>
<line x1="119.535" y1="440.635" x2="118.847" y2="445.909" stroke="#BFBFBF"/>
<line x1="116.873" y1="439.697" x2="113.778" y2="442.869" stroke="#BFBFBF"/>
<line x1="115.885" y1="437.974" x2="110.497" y2="438.165" stroke="#BFBFBF"/>
<line x1="115.909" y1="435.234" x2="110.215" y2="430.916" stroke="#BFBFBF"/>
<line x1="117.779" y1="433.582" x2="113.308" y2="426.742" stroke="#BFBFBF"/>
<path d="M116.758 411.902C116.77 411.918 116.776 411.936 116.777 411.955C117.428 413.847 118.501 417.678 117.714 418.284C117.272 418.623 116.803 418.335 116.413 417.876C116.493 418.275 116.375 418.67 115.841 418.934C115.181 419.259 114.688 418.837 114.355 418.245C114.433 418.763 114.367 419.277 113.969 419.583C113.355 420.055 112.535 419.115 111.976 418.222C112.175 418.74 112.22 419.347 111.714 419.736C110.919 420.348 110.249 419.545 110.013 419.068L109.095 414.261C108.94 413.869 109.782 413.218 110.377 412.857C113.74 411.061 116.376 411.405 116.758 411.902Z" fill="#BFBFBF"/>
<path d="M116.758 411.902C117.14 412.399 111.466 414.787 109.708 414.558C109.336 414.509 109.151 414.402 109.095 414.261M116.758 411.902C116.376 411.405 113.74 411.061 110.377 412.857C109.782 413.218 108.94 413.869 109.095 414.261M116.758 411.902C117.408 413.774 118.508 417.673 117.714 418.284C116.919 418.895 116.032 417.469 115.688 416.679C116.217 417.195 116.988 418.368 115.841 418.934C114.695 419.499 114.051 417.806 113.873 416.889C114.236 417.533 114.764 418.972 113.969 419.583C113.174 420.195 112.032 418.437 111.561 417.482C111.943 417.978 112.509 419.125 111.714 419.736C110.919 420.348 110.249 419.545 110.013 419.068L109.095 414.261" stroke="#BFBFBF"/>
<path d="M113.001 413.425C110.447 411.304 106.363 406.749 110.46 405.496C114.556 404.242 113.861 410.26 113.001 413.425Z" stroke="#BFBFBF"/>
<circle cx="308.304" cy="216.696" r="19.3036" fill="#BFBFBF"/>
<path d="M322.814 217.806L323.438 217.23L316.33 209.35L315.707 209.925L322.814 217.806Z" fill="#BFBFBF"/>
<path d="M316.197 217.427L323.742 209.258L323.126 208.675L315.581 216.844L316.197 217.427Z" fill="#BFBFBF"/>
<path d="M319.343 204.109C319.596 207.95 320.44 220.668 320.355 221.18L319.512 221.094C319.512 220.582 318.921 210.681 318.5 204.194L319.343 204.109Z" fill="#BFBFBF"/>
<path d="M312.547 214.634L325.348 213.898L325.3 213.046L312.499 213.781L312.547 214.634Z" fill="#BFBFBF"/>
<path d="M312.046 229.205L312.424 228.855L308.112 224.075L307.734 224.424L312.046 229.205Z" fill="#BFBFBF"/>
<path d="M308.03 228.972L312.607 224.016L312.234 223.662L307.656 228.618L308.03 228.972Z" fill="#BFBFBF"/>
<path d="M309.935 220.891C310.089 223.222 310.6 230.937 310.549 231.248L310.037 231.196C310.037 230.886 309.679 224.879 309.423 220.943L309.935 220.891Z" fill="#BFBFBF"/>
<path d="M305.818 227.28L313.584 226.834L313.555 226.317L305.789 226.763L305.818 227.28Z" fill="#BFBFBF"/>
<path d="M307.009 209.062L307.387 208.713L303.075 203.932L302.697 204.281L307.009 209.062Z" fill="#BFBFBF"/>
<path d="M302.993 208.829L307.57 203.873L307.196 203.519L302.619 208.476L302.993 208.829Z" fill="#BFBFBF"/>
<path d="M304.9 200.749C305.053 203.079 305.565 210.795 305.514 211.105L305.002 211.054C305.002 210.743 304.644 204.736 304.388 200.801L304.9 200.749Z" fill="#BFBFBF"/>
<path d="M300.781 207.137L308.547 206.691L308.518 206.174L300.752 206.62L300.781 207.137Z" fill="#BFBFBF"/>
<path d="M300.819 225.97L301.432 225.404L294.443 217.656L293.83 218.221L300.819 225.97Z" fill="#BFBFBF"/>
<path d="M294.312 225.597L301.73 217.564L301.125 216.991L293.706 225.024L294.312 225.597Z" fill="#BFBFBF"/>
<path d="M297.405 212.501C297.654 216.278 298.483 228.784 298.4 229.287L297.571 229.203C297.571 228.7 296.99 218.964 296.576 212.585L297.405 212.501Z" fill="#BFBFBF"/>
<path d="M290.728 222.856L303.314 222.133L303.267 221.295L290.681 222.018L290.728 222.856Z" fill="#BFBFBF"/>
<path d="M294.035 202.429C297.998 201.288 306.345 198.436 308.023 196.154M308.023 196.154C310.121 193.302 315.017 185.886 317.815 190.449C320.613 195.013 314.318 196.154 308.023 196.154ZM308.023 196.154C305.226 192.541 298.791 186.343 295.434 190.449C292.077 194.556 302.428 195.963 308.023 196.154ZM308.023 196.154C308.723 198.245 311.94 202.429 319.214 202.429" stroke="#BFBFBF" stroke-width="3" stroke-linecap="round"/>
<circle cx="352.5" cy="493.5" r="19.5" fill="#BFBFBF"/>
<path d="M333 493.507C333 482.733 341.73 474 352.5 474C363.27 474 372 482.733 372 493.507C366.8 493.507 363.971 489.427 363.206 487.387C362.441 490.192 360.376 495.572 358.235 494.654C356.094 493.736 354.539 489.427 354.029 487.387C352.5 490.574 348.982 496.49 347.147 494.654C344.853 492.359 341.794 482.797 342.176 487.387C342.482 491.059 336.186 492.997 333 493.507Z" fill="#BFBFBF"/>
<rect x="346" y="469" width="13" height="8" fill="#BFBFBF"/>
<path d="M234.496 513.095C243.1 506.447 238.932 494.344 244.579 494.344C249.687 494.344 246.192 506.447 254.796 513.095C263.888 520.121 251.553 534.457 246.467 544.194C245.957 545.169 243.205 545.167 242.698 544.191C237.64 534.454 225.405 520.12 234.496 513.095Z" fill="#BFBFBF"/>
<rect x="241.486" y="494.344" width="5.91511" height="2.98321" fill="#BFBFBF"/>
<path d="M235 498C237.991 497.32 244.289 495.621 245.556 494.262M245.556 494.262C247.139 492.563 250.833 488.145 252.944 490.864C255.056 493.582 250.306 494.262 245.556 494.262ZM245.556 494.262C243.444 492.11 238.589 488.417 236.056 490.864C233.522 493.31 241.333 494.148 245.556 494.262ZM245.556 494.262C246.083 495.508 248.511 498 254 498" stroke="#BFBFBF" stroke-width="2" stroke-linecap="round"/>
<path d="M231 521.192C232.075 521.086 231.968 521.533 233.689 520.34M233.689 520.34C235.84 518.848 237.453 515.865 234.092 515.865C230.731 515.865 231.807 519.062 233.689 520.34ZM233.689 520.34C234.182 520.766 235.544 521.619 237.05 521.619C238.932 521.619 240.007 521.086 240.679 520.34M240.679 520.34C241.351 519.594 244.847 515.865 240.679 515.865C236.512 515.865 238.932 519.062 240.679 520.34ZM240.679 520.34C240.993 520.766 241.943 521.619 243.234 521.619C244.524 521.619 245.833 520.766 246.326 520.34M246.326 520.34C247.939 518.848 250.278 515.865 246.729 515.865C243.18 515.865 244.981 518.848 246.326 520.34ZM246.326 520.34C246.594 520.766 247.509 521.619 249.014 521.619C249.328 521.619 250.197 521.363 251.165 520.34M251.165 520.34C252.375 519.062 255.064 515.865 251.434 515.865C248.53 515.865 250.045 518.848 251.165 520.34ZM251.165 520.34C251.389 520.766 252.187 521.619 253.585 521.619C255.333 521.619 255.601 520.766 256.005 520.34M256.005 520.34C256.408 519.914 258.425 515.865 256.005 515.865C253.585 515.865 254.123 519.062 256.005 520.34ZM256.005 520.34C256.318 520.766 257.08 521.619 257.618 521.619" stroke="#BFBFBF"/>
<path d="M233.42 528.224C234.311 528.117 234.222 528.565 235.647 527.371M235.647 527.371C237.429 525.88 238.765 522.896 235.981 522.896C233.197 522.896 234.088 526.093 235.647 527.371ZM235.647 527.371C236.055 527.797 237.184 528.65 238.431 528.65C239.99 528.65 240.88 528.117 241.437 527.371M241.437 527.371C241.994 526.625 244.889 522.896 241.437 522.896C237.985 522.896 239.99 526.093 241.437 527.371ZM241.437 527.371C241.697 527.797 242.484 528.65 243.553 528.65C244.622 528.65 245.706 527.797 246.114 527.371M246.114 527.371C247.45 525.88 249.387 522.896 246.448 522.896C243.508 522.896 245 525.88 246.114 527.371ZM246.114 527.371C246.336 527.797 247.094 528.65 248.341 528.65C248.601 528.65 249.321 528.394 250.122 527.371M250.122 527.371C251.125 526.093 253.352 522.896 250.345 522.896C247.94 522.896 249.194 525.88 250.122 527.371ZM250.122 527.371C250.308 527.797 250.969 528.65 252.127 528.65C253.574 528.65 253.797 527.797 254.131 527.371M254.131 527.371C254.465 526.945 256.135 522.896 254.131 522.896C252.127 522.896 252.572 526.093 254.131 527.371ZM254.131 527.371C254.391 527.797 255.022 528.65 255.467 528.65" stroke="#BFBFBF"/>
<path d="M236.914 534.618C237.522 534.512 237.462 534.959 238.435 533.766M238.435 533.766C239.652 532.274 240.564 529.291 238.663 529.291C236.762 529.291 237.37 532.487 238.435 533.766ZM238.435 533.766C238.714 534.192 239.484 535.044 240.336 535.044C241.401 535.044 242.009 534.512 242.389 533.766M242.389 533.766C242.769 533.02 244.747 529.291 242.389 529.291C240.032 529.291 241.401 532.487 242.389 533.766ZM242.389 533.766C242.567 534.192 243.104 535.044 243.834 535.044C244.564 535.044 245.304 534.192 245.583 533.766M245.583 533.766C246.496 532.274 247.819 529.291 245.811 529.291C243.804 529.291 244.823 532.274 245.583 533.766ZM245.583 533.766C245.735 534.192 246.252 535.044 247.104 535.044C247.281 535.044 247.773 534.789 248.321 533.766M248.321 533.766C249.005 532.487 250.526 529.291 248.473 529.291C246.83 529.291 247.687 532.274 248.321 533.766ZM248.321 533.766C248.447 534.192 248.899 535.044 249.689 535.044C250.678 535.044 250.83 534.192 251.058 533.766M251.058 533.766C251.286 533.34 252.427 529.291 251.058 529.291C249.689 529.291 249.994 532.487 251.058 533.766ZM251.058 533.766C251.236 534.192 251.667 535.044 251.971 535.044" stroke="#BFBFBF"/>
<path d="M153.579 281.035L160.587 284.146C164.542 278.796 165.861 272.013 170.59 275.509C173.934 277.981 171.957 280.656 171.637 282.489L155.557 325.934L163.729 328.871L179.489 287.257C182.455 283.243 183.792 272.339 173.527 267.338C165.446 263.401 160.586 268.288 158.755 271.933L153.579 281.035Z" fill="#BFBFBF"/>
<path d="M161.082 283.476L155.876 276.526L158.755 271.932L163.961 278.882L161.082 283.476Z" fill="#BFBFBF"/>
<path d="M181.29 283.41L167.361 265.883C173.933 266.086 176.695 268.637 179.632 272.359C182.569 276.081 181.745 281.161 181.29 283.41Z" fill="#BFBFBF"/>
<path d="M176.057 296.097L169.106 289.408L171.229 283.738L178.179 290.426L176.057 296.097Z" fill="#BFBFBF"/>
<path d="M170.997 309.939L163.96 302.669L165.675 298.249L172.713 305.519L170.997 309.939Z" fill="#BFBFBF"/>
<path d="M160.616 312.091L158.493 317.762L165.85 323.199L167.566 318.779L160.616 312.091Z" fill="#BFBFBF"/>
<path d="M381.224 375.035L374.216 378.146C370.261 372.796 368.942 366.013 364.213 369.509C360.868 371.981 362.846 374.656 363.166 376.489L379.246 419.934L371.074 422.871L355.314 381.257C352.348 377.243 351.011 366.339 361.276 361.338C369.356 357.401 374.216 362.288 376.048 365.933L381.224 375.035Z" fill="#BFBFBF"/>
<path d="M373.721 377.476L378.926 370.526L376.048 365.932L370.842 372.882L373.721 377.476Z" fill="#BFBFBF"/>
<path d="M353.513 377.41L367.441 359.883C360.869 360.086 358.108 362.637 355.171 366.359C352.234 370.081 353.057 375.161 353.513 377.41Z" fill="#BFBFBF"/>
<path d="M358.746 390.097L365.696 383.408L363.574 377.738L356.623 384.426L358.746 390.097Z" fill="#BFBFBF"/>
<path d="M363.806 403.939L370.843 396.669L369.128 392.249L362.09 399.519L363.806 403.939Z" fill="#BFBFBF"/>
<path d="M374.187 406.091L376.31 411.762L368.952 417.199L367.237 412.779L374.187 406.091Z" fill="#BFBFBF"/>
<path d="M314.075 373.253C307.32 373.253 298.083 380.673 295.268 383.616C294.871 382.72 293.386 380.929 290.623 380.929C287.169 380.929 286.097 380.545 284.906 382.464C284.138 374.021 259.192 359.436 258.041 382.08C257.119 400.196 272.113 398.2 279.917 395.514C279.917 401.654 266.228 420.204 259.192 428.136C261.648 426.908 266.868 425.833 269.171 425.45C271.013 428.827 270.962 432.998 270.706 434.661C277.461 431.283 285.29 412.272 288.361 403.189C289.896 410.865 302.049 428.648 307.934 436.58C307.934 434.123 308.702 429.927 309.086 428.136C316.762 431.514 320.472 429.543 321.367 428.136C308.779 418.004 300.13 402.806 296.42 395.514C299.875 400.119 312.54 401.27 314.075 401.27C315.61 401.27 326.741 401.27 326.741 388.989C326.741 376.707 322.519 373.253 314.075 373.253Z" fill="#BFBFBF" stroke="#BFBFBF"/>
<mask id="path-81-inside-1_166_31474" fill="white">
<path d="M290.623 392.711C289.983 395.308 290.009 401.654 295.228 406.259C294.333 402.371 292.695 393.996 293.309 391.6C292.517 392.144 291.606 392.53 290.623 392.711Z"/>
<path d="M284.866 391.211C284.61 394.692 283.254 401.961 279.876 403.189C282.563 403.472 287.783 401.726 287.168 392.483C286.317 392.206 285.537 391.77 284.866 391.211Z"/>
<path d="M282.377 385.918C282.377 385.502 282.414 385.095 282.485 384.699C278.623 381.854 270.162 376.978 267.211 380.229C270.562 380.699 278.308 382.74 282.485 387.137C282.414 386.742 282.377 386.334 282.377 385.918Z"/>
<path d="M296.265 385.105C296.296 385.372 296.313 385.643 296.313 385.918C296.313 386.625 296.205 387.308 296.006 387.95C297.729 385.362 305.672 383.079 309.429 382.261C305.822 380.31 299.15 383.344 296.265 385.105Z"/>
<path d="M296.265 385.105C295.859 381.673 292.916 379.01 289.345 379.01C285.916 379.01 283.066 381.465 282.485 384.699C282.414 385.095 282.377 385.502 282.377 385.918C282.377 386.334 282.414 386.742 282.485 387.137C282.777 388.763 283.642 390.191 284.866 391.211C285.537 391.77 286.317 392.206 287.168 392.483C287.853 392.706 288.585 392.827 289.345 392.827C289.781 392.827 290.208 392.787 290.623 392.711C291.606 392.53 292.517 392.144 293.309 391.6C294.579 390.727 295.542 389.447 296.006 387.95C296.205 387.308 296.313 386.625 296.313 385.918C296.313 385.643 296.296 385.372 296.265 385.105Z"/>
</mask>
<path d="M290.623 392.711C289.983 395.308 290.009 401.654 295.228 406.259C294.333 402.371 292.695 393.996 293.309 391.6C292.517 392.144 291.606 392.53 290.623 392.711Z" fill="#D9D9D9"/>
<path d="M284.866 391.211C284.61 394.692 283.254 401.961 279.876 403.189C282.563 403.472 287.783 401.726 287.168 392.483C286.317 392.206 285.537 391.77 284.866 391.211Z" fill="#D9D9D9"/>
<path d="M282.377 385.918C282.377 385.502 282.414 385.095 282.485 384.699C278.623 381.854 270.162 376.978 267.211 380.229C270.562 380.699 278.308 382.74 282.485 387.137C282.414 386.742 282.377 386.334 282.377 385.918Z" fill="#D9D9D9"/>
<path d="M295.272 385.223C295.299 385.45 295.313 385.683 295.313 385.918H297.313C297.313 385.604 297.294 385.293 297.258 384.988L295.272 385.223ZM295.313 385.918C295.313 386.524 295.221 387.106 295.051 387.654L296.961 388.246C297.19 387.509 297.313 386.727 297.313 385.918H295.313ZM283.377 385.918C283.377 385.562 283.408 385.213 283.469 384.876L281.5 384.522C281.419 384.976 281.377 385.443 281.377 385.918H283.377ZM283.469 386.961C283.408 386.623 283.377 386.275 283.377 385.918H281.377C281.377 386.394 281.419 386.86 281.5 387.314L283.469 386.961ZM292.743 390.776C292.064 391.242 291.284 391.572 290.442 391.727L290.803 393.694C291.928 393.487 292.97 393.046 293.876 392.424L292.743 390.776ZM287.478 391.532C286.749 391.295 286.081 390.921 285.506 390.442L284.226 391.979C284.993 392.618 285.884 393.116 286.859 393.434L287.478 391.532ZM296.265 385.105L294.279 385.34L294.645 388.437L297.307 386.813L296.265 385.105ZM309.429 382.261L309.854 384.215L315.125 383.067L310.38 380.502L309.429 382.261ZM296.006 387.95L294.341 386.842L294.181 387.082L294.096 387.358L296.006 387.95ZM282.485 384.699L281.299 386.309L283.885 388.215L284.453 385.053L282.485 384.699ZM267.211 380.229L265.73 378.885L263.189 381.684L266.933 382.209L267.211 380.229ZM282.485 387.137L284.453 386.784L284.347 386.194L283.935 385.76L282.485 387.137ZM290.623 392.711L292.565 393.189L293.305 390.184L290.261 390.744L290.623 392.711ZM295.228 406.259L293.905 407.759L298.575 411.88L297.177 405.811L295.228 406.259ZM293.309 391.6L292.177 389.952L291.558 390.377L291.372 391.104L293.309 391.6ZM284.866 391.211L286.86 391.357L286.936 390.332L286.146 389.674L284.866 391.211ZM279.876 403.189L279.193 401.309L279.667 405.178L279.876 403.189ZM287.168 392.483L287.788 390.581L284.977 389.666L285.173 392.616L287.168 392.483ZM289.345 381.01C291.903 381.01 293.992 382.916 294.279 385.34L298.251 384.871C297.726 380.43 293.928 377.01 289.345 377.01V381.01ZM297.307 386.813C298.635 386.002 300.866 384.884 303.144 384.209C305.552 383.495 307.427 383.452 308.477 384.02L310.38 380.502C307.824 379.119 304.559 379.618 302.008 380.374C299.328 381.168 296.779 382.448 295.223 383.398L297.307 386.813ZM309.003 380.307C307.056 380.73 304.036 381.53 301.256 382.568C299.867 383.086 298.489 383.681 297.318 384.343C296.202 384.973 295.041 385.791 294.341 386.842L297.671 389.058C297.833 388.815 298.31 388.376 299.286 387.825C300.206 387.305 301.372 386.794 302.654 386.315C305.215 385.36 308.045 384.609 309.854 384.215L309.003 380.307ZM284.453 385.053C284.864 382.767 286.889 381.01 289.345 381.01V377.01C284.943 377.01 281.267 380.163 280.516 384.345L284.453 385.053ZM283.671 383.089C281.655 381.604 278.42 379.57 275.239 378.317C273.657 377.694 271.961 377.213 270.369 377.157C268.769 377.101 267.008 377.477 265.73 378.885L268.692 381.573C268.889 381.356 269.293 381.122 270.229 381.155C271.175 381.188 272.389 381.494 273.774 382.039C276.526 383.123 279.453 384.95 281.299 386.309L283.671 383.089ZM266.933 382.209C268.462 382.424 271.086 383.014 273.814 384.075C276.564 385.144 279.236 386.62 281.034 388.515L283.935 385.76C281.558 383.257 278.268 381.514 275.263 380.346C272.236 379.17 269.311 378.504 267.489 378.248L266.933 382.209ZM290.261 390.744C289.966 390.798 289.659 390.827 289.345 390.827V394.827C289.903 394.827 290.451 394.776 290.984 394.678L290.261 390.744ZM288.681 392.232C287.922 395.314 287.964 402.517 293.905 407.759L296.551 404.76C292.053 400.791 292.044 395.302 292.565 393.189L288.681 392.232ZM294.096 387.358C293.768 388.415 293.085 389.327 292.177 389.952L294.442 393.248C296.073 392.127 297.316 390.479 297.917 388.542L294.096 387.358ZM297.177 405.811C296.737 403.901 296.115 400.884 295.679 398.065C295.461 396.654 295.295 395.322 295.219 394.218C295.138 393.038 295.181 392.353 295.247 392.096L291.372 391.104C291.131 392.045 291.147 393.306 291.229 394.492C291.315 395.753 291.499 397.208 291.726 398.675C292.18 401.615 292.824 404.73 293.279 406.708L297.177 405.811ZM286.146 389.674C285.27 388.945 284.659 387.929 284.453 386.784L280.516 387.491C280.894 389.596 282.014 391.438 283.586 392.747L286.146 389.674ZM282.871 391.064C282.752 392.688 282.371 395.207 281.642 397.418C281.277 398.525 280.851 399.474 280.381 400.179C279.901 400.899 279.483 401.204 279.193 401.309L280.56 405.069C281.958 404.56 282.977 403.496 283.709 402.399C284.45 401.287 285.012 399.971 285.441 398.671C286.298 396.07 286.724 393.214 286.86 391.357L282.871 391.064ZM289.345 390.827C288.797 390.827 288.275 390.74 287.788 390.581L286.549 394.385C287.432 394.672 288.372 394.827 289.345 394.827V390.827ZM279.667 405.178C281.5 405.371 284.108 404.879 286.171 402.826C288.27 400.737 289.496 397.346 289.164 392.35L285.173 392.616C285.455 396.863 284.379 398.966 283.349 399.991C282.284 401.051 280.94 401.29 280.086 401.2L279.667 405.178Z" fill="#BFBFBF" mask="url(#path-81-inside-1_166_31474)"/>
<path d="M135.064 526.239C135.581 516.257 138.472 496.293 145.907 496.293C155.201 496.293 158.815 512.299 158.815 526.239C158.643 527.1 157.679 528.821 155.201 528.821C152.722 528.821 151.759 527.1 151.586 526.239C151.759 527.1 151.173 528.821 147.456 528.821C144.111 528.821 143.581 527.427 143.759 526.521C143.414 527.427 142.168 528.821 139.195 528.821C135.891 528.821 135.064 527.1 135.064 526.239Z" fill="#BFBFBF"/>
<path d="M150.697 518.465L151.33 517.881L144.113 509.879L143.481 510.464L150.697 518.465Z" fill="#BFBFBF"/>
<path d="M143.978 518.078L151.639 509.783L151.013 509.191L143.352 517.486L143.978 518.078Z" fill="#BFBFBF"/>
<path d="M147.171 504.555C147.428 508.455 148.285 521.369 148.199 521.889L147.343 521.802C147.343 521.282 146.743 511.229 146.315 504.642L147.171 504.555Z" fill="#BFBFBF"/>
<path d="M140.274 515.246L153.271 514.5L153.223 513.635L140.226 514.381L140.274 515.246Z" fill="#BFBFBF"/>
<path d="M133 500.867C137.093 499.689 145.711 496.743 147.444 494.387M147.444 494.387C149.611 491.442 154.667 483.784 157.556 488.497C160.444 493.209 153.944 494.387 147.444 494.387ZM147.444 494.387C144.556 490.657 137.911 484.257 134.444 488.497C130.978 492.737 141.667 494.19 147.444 494.387ZM147.444 494.387C148.167 496.547 151.489 500.867 159 500.867" stroke="#BFBFBF" stroke-width="2" stroke-linecap="round"/>
<path fill-rule="evenodd" clip-rule="evenodd" d="M216.469 128.317C215.466 128.55 214.342 128.944 213.213 129.52C210.41 130.95 207.576 133.501 206.477 137.488C205.887 139.625 205.797 142.175 206.477 145.185C206.656 145.981 206.89 146.808 207.182 147.668C207.566 148.801 208.053 149.992 208.653 151.241C208.705 151.372 208.774 151.519 208.862 151.675C209.861 153.742 210.789 155.561 211.663 157.137C216.908 166.6 220.179 167.307 224.912 160.412C226.225 158.499 227.651 156.001 229.262 152.941C229.551 152.393 229.847 151.826 230.148 151.241C230.932 149.721 231.538 148.273 231.986 146.898C233.405 142.538 233.232 138.913 232.102 136.036C230.76 132.621 228.069 130.26 225.088 128.973C223.329 128.215 221.47 127.83 219.727 127.825C218.568 127.821 217.461 127.985 216.469 128.317Z" fill="#BFBFBF"/>
<path d="M208.653 151.241C208.053 149.992 207.566 148.801 207.182 147.668M208.653 151.241C208.705 151.372 208.774 151.519 208.862 151.675M208.653 151.241C208.723 151.387 208.792 151.532 208.862 151.675M213.213 129.52C214.342 128.944 215.466 128.55 216.469 128.317C217.461 127.985 218.568 127.821 219.727 127.825M213.213 129.52C213.213 131.958 214.776 136.833 218.424 136.833M213.213 129.52C210.41 130.95 207.576 133.501 206.477 137.488M218.424 136.833C220.359 136.833 221.58 136.361 222.983 135.417M218.424 136.833C217.99 137.488 217.501 138.635 216.469 139.536M225.088 128.973C225.925 131.989 224.885 134.137 222.983 135.417M225.088 128.973C228.069 130.26 230.76 132.621 232.102 136.036M225.088 128.973C223.329 128.215 221.47 127.83 219.727 127.825M222.983 135.417C222.549 137.199 222.592 140.763 226.24 140.763C226.704 140.763 227.138 140.712 227.543 140.62M232.102 136.036C231.723 137.411 230.319 139.987 227.543 140.62M232.102 136.036C233.232 138.913 233.405 142.538 231.986 146.898M206.477 137.488C206.768 138.58 208.157 140.373 211.259 140.763M206.477 137.488C205.887 139.625 205.797 142.175 206.477 145.185M211.259 140.763C213.864 141.09 215.438 140.436 216.469 139.536M211.259 140.763C211.259 142.328 210.822 143.364 210.168 144.038M206.477 145.185C207.697 145.246 209.18 145.056 210.168 144.038M206.477 145.185C206.656 145.981 206.89 146.808 207.182 147.668M216.469 139.536C216.633 140.956 217.514 143.449 219.727 144.588M227.543 140.62C227.543 141.622 227.09 143.286 225.589 144.304M210.168 144.038C210.098 145.566 210.738 148.623 213.864 148.623M213.864 148.623C214.859 148.623 215.727 148.524 216.469 148.336M213.864 148.623C213.647 149.278 212.822 150.587 211.259 150.587C209.696 150.587 207.889 148.641 207.182 147.668M219.727 144.588C220.447 144.958 221.308 145.185 222.332 145.185C223.754 145.185 224.812 144.831 225.589 144.304M219.727 144.588C219.727 146.462 218.641 147.784 216.469 148.336M225.589 144.304C225.403 145.744 225.665 148.623 228.194 148.623M228.194 148.623C228.194 149.51 227.596 150.999 225.589 151.867M228.194 148.623C230.442 148.623 231.584 147.588 231.986 146.898M232.102 146.658C232.074 146.73 232.036 146.811 231.986 146.898M216.469 148.336C216.469 149.262 216.922 150.799 218.424 151.739M218.424 151.739C219.201 152.226 220.259 152.552 221.681 152.552C223.36 152.552 224.634 152.28 225.589 151.867M218.424 151.739C218.31 152.226 217.92 152.968 217.121 153.564M217.121 153.564C216.401 154.101 215.347 154.517 213.864 154.517C211.113 154.517 209.504 152.825 208.862 151.675M217.121 153.564C217.338 154.973 218.424 157.792 221.029 157.792M221.029 157.792C224.286 157.792 225.589 155.112 225.589 151.867M221.029 157.792C220.925 158.316 220.651 159.092 220.163 159.757M225.589 151.867C226.084 152.626 227.512 153.903 229.262 152.941M229.262 152.941C229.551 152.393 229.847 151.826 230.148 151.241C230.932 149.721 231.538 148.273 231.986 146.898M229.262 152.941C227.651 156.001 226.225 158.499 224.912 160.412M211.663 157.137C212.831 158.447 215.688 161.067 217.773 161.067C218.856 161.067 219.634 160.477 220.163 159.757M211.663 157.137C216.908 166.6 220.179 167.307 224.912 160.412M211.663 157.137C210.789 155.561 209.861 153.742 208.862 151.675M220.163 159.757C220.869 160.412 222.807 161.46 224.912 160.412M219.727 127.825C216.904 124.55 212.953 118 219.727 118C226.501 118 222.549 124.55 219.727 127.825Z" stroke="#BFBFBF"/>
<path d="M242.99 326.525C242.99 314.753 222.67 309.358 222.67 304.453C222.67 310.059 204.102 311.81 202 326.525C202 342.5 224.772 346.494 224.772 353.501C224.772 346.494 242.99 344.742 242.99 326.525Z" fill="#BFBFBF" stroke="#BFBFBF"/>
<path d="M206.904 316.715C206.904 320.568 207.745 325.613 211.108 314.963C211.575 319.984 213.14 327.015 215.663 314.963C216.48 319.751 218.606 326.454 220.568 314.963C221.385 319.634 223.44 326.174 225.122 314.963C225.823 319.284 227.855 325.333 230.377 314.963C231.078 319.634 233.04 326.174 235.282 314.963M204.102 334.232C204.102 331.079 204.382 324.772 205.503 324.772C206.904 324.772 206.904 335.283 209.006 335.283C211.108 335.283 211.108 324.072 212.159 324.072C213.21 324.072 212.51 335.283 214.612 335.283C216.714 335.283 216.363 324.072 217.765 324.072C219.166 324.072 218.466 335.283 220.568 335.283C222.67 335.283 221.619 324.072 223.37 324.072C225.122 324.072 225.122 335.283 227.224 335.283C229.326 335.283 228.275 324.072 229.676 324.072C231.078 324.072 230.377 335.283 233.18 335.283C235.983 335.283 233.18 324.072 234.581 324.072C235.983 324.072 236.333 334.232 238.785 334.232C240.747 334.232 242.172 326.991 242.639 323.371M209.006 340.538C209.123 339.72 209.707 338.085 211.108 338.085C212.86 338.085 210.758 342.289 212.159 342.289C213.561 342.289 212.51 338.786 214.612 338.786C216.714 338.786 216.013 345.793 217.765 345.793C219.517 345.793 217.064 339.136 220.217 339.136C223.37 339.136 220.217 345.793 223.37 345.793C226.523 345.793 224.071 338.786 226.173 338.786C228.275 338.786 226.173 345.092 228.976 345.092C231.778 345.092 230.377 338.786 232.129 338.786C233.88 338.786 233.18 345.092 233.88 344.391C234.581 343.691 234.581 338.085 236.683 338.085C238.365 338.085 238.085 339.72 237.734 340.538" stroke="#BFBFBF"/>
<rect x="218.816" y="302" width="8.40816" height="5.60544" fill="#BFBFBF"/>
<circle cx="225" cy="224" r="18" fill="#BFBFBF"/>
<path d="M207.5 219.5L211.5 213.5L216 220L220.5 213.5L225 220L229.5 213.5L234.5 220L238 213.5L242.5 220.5" stroke="#BFBFBF"/>
<path d="M207.5 228L211.5 234L216 227.5L220.5 234L225 227.5L229.5 234L234.5 227.5L238 234L242.5 227" stroke="#BFBFBF"/>
<path d="M211.5 217L216 224L211.5 231L207 224L211.5 217Z" fill="#BFBFBF"/>
<path d="M220.5 217L225 224L220.5 231L216 224L220.5 217Z" fill="#BFBFBF"/>
<path d="M229.5 217L234 224L229.5 231L225 224L229.5 217Z" fill="#BFBFBF"/>
<path d="M238.5 217L243 224L238.5 231L234 224L238.5 217Z" fill="#BFBFBF"/>
<path d="M248.873 2L243.646 23.1302L230.203 15.5837L236.924 29.9221L219 35.2047L236.924 41.9965L230.203 54.0709L242.152 48.7884L248.873 66.9L255.595 48.7884L268.291 56.3349L260.823 41.9965L278 36.714L260.823 29.9221L268.291 17.093L255.595 23.1302L248.873 2Z" fill="#BFBFBF" stroke="#BFBFBF"/>
<path d="M254.927 43.5254L255.957 42.5742L244.207 29.5463L243.177 30.4975L254.927 43.5254Z" fill="#BFBFBF"/>
<path d="M243.988 42.8979L256.461 29.3926L255.442 28.4291L242.969 41.9344L243.988 42.8979Z" fill="#BFBFBF"/>
<path d="M249.186 20.8798C249.604 27.2297 250.999 48.2549 250.859 49.1016L249.465 48.9604C249.465 48.1137 248.489 31.7451 247.792 21.0208L249.186 20.8798Z" fill="#BFBFBF"/>
<path d="M237.959 38.2875L259.121 37.0723L259.042 35.6634L237.88 36.8787L237.959 38.2875Z" fill="#BFBFBF"/>
</svg>
