<svg width="63" height="69" viewBox="0 0 63 69" fill="none" xmlns="http://www.w3.org/2000/svg">
<path d="M31.8734 2L26.6456 23.1302L13.2025 15.5837L19.9241 29.9221L2 35.2047L19.9241 41.9965L13.2025 54.0709L25.1519 48.7884L31.8734 66.9L38.5949 48.7884L51.2911 56.3349L43.8228 41.9965L61 36.714L43.8228 29.9221L51.2911 17.093L38.5949 23.1302L31.8734 2Z" fill="#E0B860" stroke="#E0B860"/>
<path d="M37.9271 43.5254L38.957 42.5742L27.2069 29.5463L26.1769 30.4975L37.9271 43.5254Z" fill="#FFE7B1"/>
<path d="M26.9879 42.8979L39.4609 29.3926L38.4421 28.4291L25.969 41.9344L26.9879 42.8979Z" fill="#FFE7B1"/>
<path d="M32.186 20.8798C32.6043 27.2297 33.9988 48.2549 33.8594 49.1016L32.4649 48.9604C32.4649 48.1137 31.4888 31.7451 30.7915 21.0208L32.186 20.8798Z" fill="#FFE7B1"/>
<path d="M20.959 38.2875L42.1211 37.0723L42.0421 35.6634L20.88 36.8787L20.959 38.2875Z" fill="#FFE7B1"/>
</svg>
