<svg width="43" height="52" viewBox="0 0 43 52" fill="none" xmlns="http://www.w3.org/2000/svg">
<path d="M41.9898 24.5246C41.9898 12.7531 21.6701 7.35789 21.6701 2.45312C21.6701 8.05857 3.10204 9.81027 1 24.5246C1 40.5001 23.7721 44.4939 23.7721 51.5007C23.7721 44.4939 41.9898 42.7422 41.9898 24.5246Z" fill="#FED5CF" stroke="#CF705C"/>
<path d="M5.90428 14.7146C5.90428 18.5683 6.7451 23.6132 10.1084 12.9629C10.5755 17.9844 12.1403 25.0146 14.6628 12.9629C15.4802 17.7509 17.6056 24.454 19.5675 12.9629C20.385 17.6341 22.4403 24.1738 24.122 12.9629C24.8227 17.2838 26.8546 23.333 29.3771 12.9629C30.0778 17.6341 32.0397 24.1738 34.2818 12.9629M3.10156 32.2316C3.10156 29.0785 3.38183 22.7724 4.50292 22.7724C5.90428 22.7724 5.90428 33.2826 8.00632 33.2826C10.1084 33.2826 10.1084 22.0717 11.1594 22.0717C12.2104 22.0717 11.5097 33.2826 13.6118 33.2826C15.7138 33.2826 15.3635 22.0717 16.7648 22.0717C18.1662 22.0717 17.4655 33.2826 19.5675 33.2826C21.6696 33.2826 20.6186 22.0717 22.3703 22.0717C24.122 22.0717 24.122 33.2826 26.224 33.2826C28.3261 33.2826 27.275 22.0717 28.6764 22.0717C30.0778 22.0717 29.3771 33.2826 32.1798 33.2826C34.9825 33.2826 32.1798 22.0717 33.5812 22.0717C34.9825 22.0717 35.3329 32.2316 37.7852 32.2316C39.7471 32.2316 41.1719 24.9912 41.639 21.3711M8.00632 38.5377C8.1231 37.7203 8.707 36.0853 10.1084 36.0853C11.8601 36.0853 9.75802 40.2894 11.1594 40.2894C12.5607 40.2894 11.5097 36.786 13.6118 36.786C15.7138 36.786 15.0131 43.7928 16.7648 43.7928C18.5165 43.7928 16.0641 37.1364 19.2172 37.1364C22.3703 37.1364 19.2172 43.7928 22.3703 43.7928C25.5233 43.7928 23.0709 36.786 25.173 36.786C27.275 36.786 25.173 43.0921 27.9757 43.0921C30.7784 43.0921 29.3771 36.786 31.1288 36.786C32.8805 36.786 32.1798 43.0921 32.8805 42.3915C33.5812 41.6908 33.5812 36.0853 35.6832 36.0853C37.3648 36.0853 37.0846 37.7203 36.7342 38.5377" stroke="#CF705C"/>
<rect x="17.8164" width="8.40816" height="5.60544" fill="#E2BA89"/>
</svg>
