<svg width="29" height="60" viewBox="0 0 29 60" fill="none" xmlns="http://www.w3.org/2000/svg">
<path d="M4.49598 24.0953C13.0998 17.4471 8.93223 5.34417 14.5788 5.34375C19.687 5.34375 16.1921 17.4471 24.7959 24.0953C33.8882 31.1211 21.5534 45.4573 16.4667 55.1938C15.9571 56.1693 13.2052 56.1674 12.6979 55.1907C7.63988 45.4542 -4.59534 31.1204 4.49598 24.0953Z" fill="#F7C553"/>
<rect x="11.4863" y="5.34375" width="5.91511" height="2.98321" fill="white"/>
<path d="M5 9C7.99074 8.32033 14.2889 6.62117 15.5556 5.26184M15.5556 5.26184C17.1389 3.56267 20.8333 -0.855159 22.9444 1.86351C25.0556 4.58217 20.3056 5.26184 15.5556 5.26184ZM15.5556 5.26184C13.4444 3.10978 8.58889 -0.582774 6.05556 1.86351C3.52222 4.30979 11.3333 5.14834 15.5556 5.26184ZM15.5556 5.26184C16.0833 6.50789 18.5111 9 24 9" stroke="white" stroke-width="2" stroke-linecap="round"/>
<path d="M1 32.1924C2.07547 32.0858 1.96793 32.5333 3.68869 31.34M3.68869 31.34C5.83964 29.8484 7.45285 26.8652 4.09199 26.8652C0.731131 26.8652 1.80661 30.0615 3.68869 31.34ZM3.68869 31.34C4.18161 31.7662 5.54388 32.6186 7.04955 32.6186C8.93163 32.6186 10.0071 32.0858 10.6793 31.34M10.6793 31.34C11.3514 30.5942 14.8467 26.8652 10.6793 26.8652C6.51181 26.8652 8.93163 30.0615 10.6793 31.34ZM10.6793 31.34C10.993 31.7662 11.943 32.6186 13.2335 32.6186C14.5241 32.6186 15.8326 31.7662 16.3255 31.34M16.3255 31.34C17.9387 29.8484 20.2779 26.8652 16.7288 26.8652C13.1798 26.8652 14.9812 29.8484 16.3255 31.34ZM16.3255 31.34C16.5944 31.7662 17.5085 32.6186 19.0142 32.6186C19.3279 32.6186 20.1972 32.3629 21.1652 31.34M21.1652 31.34C22.3751 30.0615 25.0637 26.8652 21.434 26.8652C18.5302 26.8652 20.0449 29.8484 21.1652 31.34ZM21.1652 31.34C21.3892 31.7662 22.1869 32.6186 23.585 32.6186C25.3326 32.6186 25.6015 31.7662 26.0048 31.34M26.0048 31.34C26.4081 30.9139 28.4246 26.8652 26.0048 26.8652C23.585 26.8652 24.1227 30.0615 26.0048 31.34ZM26.0048 31.34C26.3185 31.7662 27.0803 32.6186 27.618 32.6186" stroke="white"/>
<path d="M3.41992 39.2236C4.31072 39.1171 4.22164 39.5646 5.64692 38.3713M5.64692 38.3713C7.42851 36.8797 8.76471 33.8965 5.98096 33.8965C3.19722 33.8965 4.08802 37.0928 5.64692 38.3713ZM5.64692 38.3713C6.0552 38.7975 7.18354 39.6498 8.43066 39.6498C9.98955 39.6498 10.8803 39.1171 11.4371 38.3713M11.4371 38.3713C11.9938 37.6255 14.8889 33.8965 11.4371 33.8965C7.98526 33.8965 9.98955 37.0928 11.4371 38.3713ZM11.4371 38.3713C11.6969 38.7975 12.4838 39.6498 13.5527 39.6498C14.6217 39.6498 15.7055 38.7975 16.1138 38.3713M16.1138 38.3713C17.45 36.8797 19.3875 33.8965 16.4478 33.8965C13.5082 33.8965 15.0003 36.8797 16.1138 38.3713ZM16.1138 38.3713C16.3365 38.7975 17.0937 39.6498 18.3408 39.6498C18.6006 39.6498 19.3207 39.3941 20.1224 38.3713M20.1224 38.3713C21.1245 37.0928 23.3515 33.8965 20.3451 33.8965C17.9399 33.8965 19.1945 36.8797 20.1224 38.3713ZM20.1224 38.3713C20.308 38.7975 20.9686 39.6498 22.1267 39.6498C23.5742 39.6498 23.7969 38.7975 24.131 38.3713M24.131 38.3713C24.465 37.9451 26.1353 33.8965 24.131 33.8965C22.1267 33.8965 22.5721 37.0928 24.131 38.3713ZM24.131 38.3713C24.3908 38.7975 25.0218 39.6498 25.4672 39.6498" stroke="white"/>
<path d="M6.91406 45.6182C7.52241 45.5116 7.46158 45.9591 8.43494 44.7658M8.43494 44.7658C9.65163 43.2742 10.5642 40.291 8.66307 40.291C6.76198 40.291 7.37032 43.4873 8.43494 44.7658ZM8.43494 44.7658C8.71376 45.192 9.48434 46.0443 10.336 46.0443C11.4006 46.0443 12.009 45.5116 12.3892 44.7658M12.3892 44.7658C12.7694 44.02 14.7466 40.291 12.3892 40.291C10.0319 40.291 11.4006 43.4873 12.3892 44.7658ZM12.3892 44.7658C12.5666 45.192 13.104 46.0443 13.834 46.0443C14.5641 46.0443 15.3042 45.192 15.583 44.7658M15.583 44.7658C16.4956 43.2742 17.8187 40.291 15.8112 40.291C13.8036 40.291 14.8226 43.2742 15.583 44.7658ZM15.583 44.7658C15.7351 45.192 16.2522 46.0443 17.1039 46.0443C17.2813 46.0443 17.7731 45.7886 18.3206 44.7658M18.3206 44.7658C19.005 43.4873 20.5259 40.291 18.4727 40.291C16.8302 40.291 17.6869 43.2742 18.3206 44.7658ZM18.3206 44.7658C18.4474 45.192 18.8985 46.0443 19.6894 46.0443C20.678 46.0443 20.8301 45.192 21.0582 44.7658M21.0582 44.7658C21.2863 44.3397 22.427 40.291 21.0582 40.291C19.6894 40.291 19.9936 43.4873 21.0582 44.7658ZM21.0582 44.7658C21.2356 45.192 21.6665 46.0443 21.9707 46.0443" stroke="white"/>
</svg>
