<svg width="28" height="43" viewBox="0 0 28 43" fill="none" xmlns="http://www.w3.org/2000/svg">
<path d="M3.06445 40.2391C3.58077 30.257 6.47211 10.293 13.907 10.293C23.2006 10.293 26.8148 26.2986 26.8148 40.2391C26.6427 41.0996 25.6789 42.8206 23.2006 42.8206C20.7223 42.8206 19.7585 41.0996 19.5864 40.2391C19.7585 41.0996 19.1734 42.8206 15.4559 42.8206C12.1109 42.8206 11.5807 41.4272 11.7588 40.521C11.4137 41.4272 10.1683 42.8206 7.19495 42.8206C3.89055 42.8206 3.06445 41.0996 3.06445 40.2391Z" fill="#FFDA92"/>
<path d="M18.6975 32.4651L19.3301 31.8809L12.1133 23.8794L11.4807 24.4636L18.6975 32.4651Z" fill="#D93037"/>
<path d="M11.9779 32.0779L19.6387 23.7832L19.0129 23.1914L11.3522 31.4862L11.9779 32.0779Z" fill="#D93037"/>
<path d="M15.1713 18.5553C15.4283 22.4553 16.2847 35.3687 16.1991 35.8887L15.3426 35.802C15.3426 35.282 14.7431 25.2287 14.3149 18.642L15.1713 18.5553Z" fill="#D93037"/>
<path d="M8.2741 29.2464L21.2715 28.5L21.223 27.6347L8.22558 28.3811L8.2741 29.2464Z" fill="#D93037"/>
<path d="M1 14.8667C5.09259 13.6886 13.7111 10.7434 15.4444 8.38718M15.4444 8.38718C17.6111 5.44196 22.6667 -2.21561 25.5556 2.49674C28.4444 7.20909 21.9444 8.38718 15.4444 8.38718ZM15.4444 8.38718C12.5556 4.65695 5.91111 -1.74347 2.44444 2.49674C-1.02222 6.73696 9.66667 8.19046 15.4444 8.38718ZM15.4444 8.38718C16.1667 10.547 19.4889 14.8667 27 14.8667" stroke="#D93037" stroke-width="2" stroke-linecap="round"/>
</svg>
