<svg width="42" height="67" viewBox="0 0 42 67" fill="none" xmlns="http://www.w3.org/2000/svg">
<path d="M6.57856 17.035L13.5869 20.1464C17.5416 14.7956 18.8609 8.01285 23.59 11.5088C26.9344 13.9811 24.957 16.6563 24.6372 18.4886L8.55701 61.9336L16.7285 64.8706L32.4887 23.2566C35.4548 19.2435 36.7922 8.33891 26.527 3.33792C18.4464 -0.598786 13.5865 4.28818 11.7545 7.93289L6.57856 17.035Z" fill="#F3F1F1"/>
<path d="M14.0819 19.4762L8.8764 12.5262L11.7552 7.93155L16.9607 14.8815L14.0819 19.4762Z" fill="#C02222"/>
<path d="M34.2899 19.4101L20.3613 1.88281C26.9334 2.08621 29.6947 4.63659 32.6319 8.35874C35.569 12.0809 34.7454 17.1613 34.2899 19.4101Z" fill="#C02222"/>
<path d="M29.0566 32.0967L22.1064 25.4085L24.2291 19.7379L31.1793 26.426L29.0566 32.0967Z" fill="#C02222"/>
<path d="M23.9971 45.9388L16.9596 38.669L18.6752 34.2488L25.7127 41.5186L23.9971 45.9388Z" fill="#C02222"/>
<path d="M13.6156 48.0909L11.493 53.7616L18.8503 59.1993L20.5659 54.7791L13.6156 48.0909Z" fill="#C02222"/>
</svg>
