<svg width="42" height="67" viewBox="0 0 42 67" fill="none" xmlns="http://www.w3.org/2000/svg">
<path d="M35.2242 17.035L28.2159 20.1464C24.2611 14.7956 22.9418 8.01285 18.2127 11.5088C14.8684 13.9811 16.8458 16.6563 17.1656 18.4886L33.2457 61.9336L25.0742 64.8706L9.31402 23.2566C6.34798 19.2435 5.01052 8.33891 15.2758 3.33792C23.3564 -0.598786 28.2163 4.28818 30.0482 7.93289L35.2242 17.035Z" fill="#F3F1F1"/>
<path d="M27.7209 19.4762L32.9263 12.5262L30.0475 7.93155L24.8421 14.8815L27.7209 19.4762Z" fill="#C02222"/>
<path d="M7.51286 19.4101L21.4414 1.88281C14.8694 2.08621 12.108 4.63659 9.17085 8.35874C6.23369 12.0809 7.05733 17.1613 7.51286 19.4101Z" fill="#C02222"/>
<path d="M12.7461 32.0967L19.6963 25.4085L17.5737 19.7379L10.6234 26.426L12.7461 32.0967Z" fill="#C02222"/>
<path d="M17.8056 45.9388L24.8431 38.669L23.1275 34.2488L16.09 41.5186L17.8056 45.9388Z" fill="#C02222"/>
<path d="M28.1871 48.0909L30.3098 53.7616L22.9524 59.1993L21.2368 54.7791L28.1871 48.0909Z" fill="#C02222"/>
</svg>
