<svg width="47" height="55" viewBox="0 0 47 55" fill="none" xmlns="http://www.w3.org/2000/svg">
<circle cx="22.3552" cy="32.3275" r="19.4434" transform="rotate(7.42989 22.3552 32.3275)" fill="#649FAF" stroke="white"/>
<circle cx="25.7192" cy="30.5314" r="11.0228" transform="rotate(7.42989 25.7192 30.5314)" stroke="white"/>
<circle cx="24.4973" cy="33.0537" r="3.93186" transform="rotate(7.42989 24.4973 33.0537)" stroke="white"/>
<line x1="24.4555" y1="29.5176" x2="24.8373" y2="19.7348" stroke="white"/>
<line x1="26.3599" y1="29.4115" x2="33.496" y2="22.298" stroke="white"/>
<line x1="28.021" y1="31.3055" x2="36.6191" y2="27.0635" stroke="white"/>
<line x1="27.9798" y1="33.0129" x2="36.9984" y2="32.4012" stroke="white"/>
<line x1="27.7326" y1="35.6526" x2="34.7641" y2="36.5696" stroke="white"/>
<line x1="26.2244" y1="36.5396" x2="29.167" y2="41.3927" stroke="white"/>
<line x1="24.5349" y1="36.635" x2="23.8471" y2="41.9086" stroke="white"/>
<line x1="21.8735" y1="35.6969" x2="18.7782" y2="38.8687" stroke="white"/>
<line x1="20.8849" y1="33.9743" x2="15.4967" y2="34.1655" stroke="white"/>
<line x1="20.9088" y1="31.2343" x2="15.2148" y2="26.9163" stroke="white"/>
<line x1="22.7787" y1="29.5822" x2="18.3075" y2="22.7419" stroke="white"/>
<path d="M21.7582 7.90187C21.7704 7.91774 21.7764 7.93554 21.7766 7.95512C22.4283 9.84736 23.501 13.6783 22.7136 14.284C22.2723 14.6235 21.8028 14.3347 21.4135 13.8755C21.4932 14.2749 21.3752 14.6702 20.8412 14.9337C20.1814 15.2592 19.6883 14.8367 19.3545 14.2446C19.4333 14.7625 19.367 15.277 18.9687 15.5834C18.355 16.0555 17.5348 15.1153 16.9758 14.2225C17.1746 14.74 17.2205 15.3467 16.714 15.7363C15.9192 16.3478 15.2492 15.5453 15.0135 15.0676L14.0951 10.2608C13.9399 9.86877 14.782 9.2181 15.3768 8.85745C18.7399 7.06133 21.376 7.4051 21.7582 7.90187Z" fill="#649FAF"/>
<path d="M21.7582 7.90187C22.1403 8.39865 16.4659 10.7872 14.7081 10.558C14.3359 10.5095 14.1509 10.4019 14.0951 10.2608M21.7582 7.90187C21.376 7.4051 18.7399 7.06133 15.3768 8.85745C14.782 9.2181 13.9399 9.86877 14.0951 10.2608M21.7582 7.90187C22.4078 9.77449 23.5085 13.6726 22.7136 14.284C21.9188 14.8955 21.0322 13.4688 20.6882 12.6791C21.2169 13.195 21.9876 14.3681 20.8412 14.9337C19.6947 15.4993 19.0514 13.8064 18.8731 12.8893C19.2361 13.5326 19.7635 14.972 18.9687 15.5834C18.1738 16.1949 17.0325 14.437 16.5611 13.4817C16.9433 13.9785 17.5089 15.1249 16.714 15.7363C15.9192 16.3478 15.2492 15.5453 15.0135 15.0676L14.0951 10.2608" stroke="white"/>
<path d="M18.0013 9.42507C15.4472 7.30425 11.3633 2.74922 15.4598 1.49569C19.5564 0.24215 18.861 6.25964 18.0013 9.42507Z" stroke="white"/>
</svg>
