<svg width="39" height="49" viewBox="0 0 39 49" fill="none" xmlns="http://www.w3.org/2000/svg">
<circle cx="19.3036" cy="29.6961" r="19.3036" fill="#A21919"/>
<path d="M33.8145 30.8058L34.4375 30.2305L27.33 22.3501L26.707 22.9255L33.8145 30.8058Z" fill="#E9EDF5"/>
<path d="M27.1974 30.427L34.7422 22.2578L34.1259 21.675L26.5811 29.8442L27.1974 30.427Z" fill="#E9EDF5"/>
<path d="M30.3432 17.1087C30.5963 20.9497 31.4398 33.6676 31.3554 34.1797L30.5119 34.0943C30.5119 33.5822 29.9215 23.681 29.4997 17.1941L30.3432 17.1087Z" fill="#E9EDF5"/>
<path d="M23.547 27.6335L36.3477 26.8984L36.2999 26.0463L23.4992 26.7814L23.547 27.6335Z" fill="#E9EDF5"/>
<path d="M23.0459 42.2045L23.4238 41.8555L19.1118 37.0746L18.7339 37.4236L23.0459 42.2045Z" fill="#E9EDF5"/>
<path d="M19.0301 41.9717L23.6074 37.0156L23.2335 36.662L18.6563 41.6181L19.0301 41.9717Z" fill="#E9EDF5"/>
<path d="M20.9351 33.8914C21.0886 36.2216 21.6003 43.9373 21.5492 44.248L21.0374 44.1962C21.0374 43.8855 20.6792 37.8787 20.4233 33.9432L20.9351 33.8914Z" fill="#E9EDF5"/>
<path d="M16.8181 40.28L24.584 39.834L24.555 39.317L16.7891 39.763L16.8181 40.28Z" fill="#E9EDF5"/>
<path d="M18.0088 22.062L18.3867 21.7129L14.0747 16.932L13.6967 17.2811L18.0088 22.062Z" fill="#E9EDF5"/>
<path d="M13.993 21.8291L18.5703 16.873L18.1964 16.5195L13.6191 21.4756L13.993 21.8291Z" fill="#E9EDF5"/>
<path d="M15.8999 13.7488C16.0534 16.0791 16.5652 23.7948 16.514 24.1055L16.0023 24.0537C16.0023 23.743 15.644 17.7361 15.3882 13.8006L15.8999 13.7488Z" fill="#E9EDF5"/>
<path d="M11.7809 20.1374L19.5469 19.6914L19.5179 19.1744L11.752 19.6204L11.7809 20.1374Z" fill="#E9EDF5"/>
<path d="M11.819 38.9701L12.4316 38.4043L5.44289 30.6556L4.8303 31.2214L11.819 38.9701Z" fill="#E9EDF5"/>
<path d="M5.31175 38.5971L12.7305 30.5645L12.1245 29.9914L4.70579 38.0241L5.31175 38.5971Z" fill="#E9EDF5"/>
<path d="M8.40515 25.5014C8.65397 29.2782 9.48339 41.7835 9.40045 42.2871L8.57104 42.2032C8.57104 41.6996 7.99045 31.9639 7.57575 25.5853L8.40515 25.5014Z" fill="#E9EDF5"/>
<path d="M1.7277 35.8556L14.3145 35.1328L14.2675 34.2949L1.68071 35.0177L1.7277 35.8556Z" fill="#E9EDF5"/>
<path d="M5.03516 15.4286C8.99845 14.2877 17.3447 11.4355 19.0233 9.1538M19.0233 9.1538C21.1215 6.30163 26.0173 -1.11402 28.8149 3.44946C31.6125 8.01293 25.3179 9.1538 19.0233 9.1538ZM19.0233 9.1538C16.2256 5.54141 9.79111 -0.656799 6.43397 3.44946C3.07682 7.55571 13.428 8.96329 19.0233 9.1538ZM19.0233 9.1538C19.7227 11.2454 22.9399 15.4286 30.2137 15.4286" stroke="#E9EDF5" stroke-width="3" stroke-linecap="round"/>
</svg>
