<svg width="29" height="49" viewBox="0 0 29 49" fill="none" xmlns="http://www.w3.org/2000/svg">
<path fill-rule="evenodd" clip-rule="evenodd" d="M11.4689 11.3171C10.4658 11.5499 9.34204 11.944 8.21312 12.52C5.41043 13.9499 2.57587 16.501 1.47655 20.488C0.887312 22.6251 0.796605 25.1747 1.47655 28.1854C1.65615 28.9806 1.88951 29.808 2.18165 30.6684C2.56631 31.8014 3.05287 32.9916 3.65277 34.2412C3.70483 34.372 3.77434 34.5185 3.86175 34.675C4.86082 36.7422 5.78924 38.5611 6.66288 40.1372C11.9081 49.5998 15.179 50.3074 19.9118 43.4121C21.225 41.4989 22.6507 39.0005 24.2624 35.9414C24.5515 35.3927 24.8465 34.8259 25.148 34.2412C25.9321 32.7206 26.538 31.2726 26.9856 29.8977C28.4048 25.5384 28.2324 21.9135 27.1021 19.0363C25.7605 15.6212 23.0693 13.2595 20.0881 11.9734C18.3293 11.2146 16.4697 10.8302 14.7266 10.8247C13.5679 10.821 12.4607 10.9847 11.4689 11.3171Z" fill="#8C5C46"/>
<path d="M3.65277 34.2412C3.05287 32.9916 2.56631 31.8014 2.18165 30.6684M3.65277 34.2412C3.70483 34.372 3.77434 34.5185 3.86175 34.675M3.65277 34.2412C3.72278 34.387 3.79243 34.5316 3.86175 34.675M8.21312 12.52C9.34204 11.944 10.4658 11.5499 11.4689 11.3171C12.4607 10.9847 13.5679 10.821 14.7266 10.8247M8.21312 12.52C8.21312 14.9577 9.77634 19.833 13.4239 19.833M8.21312 12.52C5.41043 13.9499 2.57587 16.501 1.47655 20.488M13.4239 19.833C15.3593 19.833 16.5803 19.361 17.9833 18.4168M13.4239 19.833C12.9895 20.4882 12.5008 21.6349 11.4689 22.5356M20.0881 11.9734C20.9245 14.9889 19.8853 17.1367 17.9833 18.4168M20.0881 11.9734C23.0693 13.2595 25.7605 15.6212 27.1021 19.0363M20.0881 11.9734C18.3293 11.2146 16.4697 10.8302 14.7266 10.8247M17.9833 18.4168C17.549 20.1988 17.5925 23.7629 21.24 23.7629C21.7041 23.7629 22.138 23.7119 22.5427 23.6196M27.1021 19.0363C26.7231 20.4113 25.3188 22.9865 22.5427 23.6196M27.1021 19.0363C28.2324 21.9135 28.4048 25.5384 26.9856 29.8977M1.47655 20.488C1.76804 21.5796 3.15678 23.3729 6.25909 23.7629M1.47655 20.488C0.887312 22.6251 0.796605 25.1747 1.47655 28.1854M6.25909 23.7629C8.86367 24.0903 10.4376 23.4358 11.4689 22.5356M6.25909 23.7629C6.25909 25.328 5.82222 26.3641 5.16833 27.0377M1.47655 28.1854C2.69709 28.2464 4.1804 28.0556 5.16833 27.0377M1.47655 28.1854C1.65615 28.9806 1.88951 29.808 2.18165 30.6684M11.4689 22.5356C11.6329 23.9564 12.5139 26.449 14.7266 27.5876M22.5427 23.6196C22.5427 24.6225 22.0901 26.2863 20.5886 27.3044M5.16833 27.0377C5.09768 28.566 5.73801 31.6226 8.86446 31.6226M8.86446 31.6226C9.8592 31.6226 10.7273 31.5241 11.4689 31.3358M8.86446 31.6226C8.64735 32.2775 7.82231 33.5875 6.25909 33.5875C4.69586 33.5875 2.88946 31.6415 2.18165 30.6684M14.7266 27.5876C15.4468 27.9582 16.3082 28.1854 17.3319 28.1854C18.7536 28.1854 19.8116 27.8314 20.5886 27.3044M14.7266 27.5876C14.7266 29.4623 13.6407 30.7842 11.4689 31.3358M20.5886 27.3044C20.4034 28.7438 20.6651 31.6226 23.194 31.6226M23.194 31.6226C23.194 32.5102 22.5958 33.9995 20.5886 34.8673M23.194 31.6226C25.4417 31.6226 26.5844 30.5877 26.9856 29.8977M27.1021 29.6576C27.0744 29.7305 27.0358 29.8114 26.9856 29.8977M11.4689 31.3358C11.4691 32.262 11.922 33.7986 13.4239 34.7389M13.4239 34.7389C14.201 35.2255 15.2591 35.5524 16.6806 35.5524C18.3603 35.5524 19.6339 35.2802 20.5886 34.8673M13.4239 34.7389C13.3097 35.2257 12.9197 35.9685 12.1212 36.5635M12.1212 36.5635C11.4006 37.1005 10.3475 37.5173 8.86446 37.5173C6.11256 37.5173 4.504 35.8252 3.86175 34.675M12.1212 36.5635C12.3383 37.9731 13.4239 40.7922 16.0292 40.7922M16.0292 40.7922C19.286 40.7922 20.5886 38.1121 20.5886 34.8673M16.0292 40.7922C15.925 41.3163 15.6506 42.0921 15.1627 42.7571M20.5886 34.8673C21.0838 35.6262 22.5116 36.9034 24.2624 35.9414M24.2624 35.9414C24.5515 35.3927 24.8465 34.8259 25.148 34.2412C25.9321 32.7206 26.538 31.2726 26.9856 29.8977M24.2624 35.9414C22.6507 39.0005 21.225 41.4989 19.9118 43.4121M6.66288 40.1372C7.83097 41.4472 10.6882 44.067 12.7725 44.067C13.856 44.067 14.6345 43.477 15.1627 42.7571M6.66288 40.1372C11.9081 49.5998 15.179 50.3074 19.9118 43.4121M6.66288 40.1372C5.78924 38.5611 4.86082 36.7422 3.86175 34.675M15.1627 42.7571C15.8688 43.4121 17.8072 44.46 19.9118 43.4121M14.7266 10.8247C11.9041 7.54977 7.95258 1 14.7266 1C21.5005 1 17.549 7.54977 14.7266 10.8247Z" stroke="#4A2610"/>
</svg>
